SplineFontDB: 3.0
FontName: OxygenSans-Heavy
FullName: OxygenSans Heavy
FamilyName: OxygenSans
Weight: Heavy
Copyright: 2013 (c) vernon adams
Version: x
ItalicAngle: 0
UnderlinePosition: 0
UnderlineWidth: 0
Ascent: 1638
Descent: 410
UFOAscent: 2002
UFODescent: -649
LayerCount: 2
Layer: 0 0 "Back"  1
Layer: 1 0 "Fore"  0
FSType: 0
OS2Version: 0
OS2_WeightWidthSlopeOnly: 0
OS2_UseTypoMetrics: 1
CreationTime: 1361663245
ModificationTime: 1361663341
PfmFamily: 33
TTFWeight: 800
TTFWidth: 5
LineGap: 0
VLineGap: 0
OS2TypoAscent: 1600
OS2TypoAOffset: 0
OS2TypoDescent: -448
OS2TypoDOffset: 0
OS2TypoLinegap: 0
OS2WinAscent: 1600
OS2WinAOffset: 0
OS2WinDescent: 448
OS2WinDOffset: 0
HheadAscent: 1600
HheadAOffset: 0
HheadDescent: -448
HheadDOffset: 0
OS2Vendor: 'newt'
MarkAttachClasses: 1
DEI: 91125
Encoding: ISO8859-1
Compacted: 1
UnicodeInterp: none
NameList: AGL For New Fonts
DisplaySize: -48
AntiAlias: 1
FitToEm: 1
WinInfo: 0 24 8
BeginPrivate: 7
BlueFuzz 1 1
BlueScale 19 0.03566249905526638
BlueShift 1 6
BlueValues 26 [-22 14 914 937 1193 1237]
OtherBlues 11 [-395 -148]
StemSnapH 36 [18 143 162 166 173 178 182 196 207]
StemSnapV 29 [171 208 220 221 228 230 259]
EndPrivate
BeginChars: 648 118

StartChar: A
Encoding: 65 65 0
Width: 1387
VWidth: 0
Flags: HW
LayerCount: 2
UndoRedoHistory
Layer: 1
Undoes
EndUndoes
Redoes
EndRedoes
EndUndoRedoHistory
Fore
SplineSet
47.7999999523 0 m 1
 328.299995542 0 l 1
 459.529296049 374.600002289 l 1
 925.654978448 374.600002289 l 1
 1063.10000002 0 l 1
 1340.19999552 0 l 1
 859.699994683 1352.20000005 l 1
 530.100000739 1352.20000005 l 1
 47.7999999523 0 l 1
869.678139633 553.899999738 m 1
 516.333174984 553.899999738 l 1
 697.518079539 1118.61672793 l 1
 869.678139633 553.899999738 l 1
EndSplineSet
EndChar

StartChar: B
Encoding: 66 66 1
Width: 1293
VWidth: 0
Flags: HW
LayerCount: 2
UndoRedoHistory
Layer: 1
Undoes
EndUndoes
Redoes
EndRedoes
EndUndoRedoHistory
Fore
SplineSet
161.800001383 0 m 1
 705.400000095 0 l 2
 1009.90000093 0 1200.79999948 139.500000358 1200.79999948 395.799999475 c 0
 1200.79999948 571.172193556 1099.01996054 671.900944171 964.586198128 725.817107267 c 1
 1089.44223653 791.26075133 1151.89999917 885.799448316 1151.89999926 1013.30000031 c 0
 1151.89999926 1263.99999952 966.800000191 1352.20000005 634.799999714 1352.20000005 c 2
 161.800001383 1352.20000005 l 1
 161.800001383 0 l 1
432.399997234 1154.40000296 m 1
 605.400000811 1154.40000296 l 2
 798.600002527 1154.40000296 889.300003409 1119.80000257 889.300003409 976.200001001 c 0
 889.300003409 845.099998832 809.300001979 800.099998832 654.300001025 800.099998832 c 2
 432.399997234 800.099998832 l 1
 432.399997234 1154.40000296 l 1
432.399997234 621.20000124 m 1
 644.699999452 621.20000124 l 2
 841.10000217 621.20000124 930.200003624 563.000000954 930.200003624 412.699998975 c 0
 930.200003624 264.399997473 842.600003004 203.199996948 657.000000954 203.199996948 c 2
 432.399997234 203.199996948 l 1
 432.399997234 621.20000124 l 1
EndSplineSet
EndChar

StartChar: C
Encoding: 67 67 2
Width: 1235
VWidth: 0
Flags: HW
LayerCount: 2
UndoRedoHistory
Layer: 1
Undoes
EndUndoes
Redoes
EndRedoes
EndUndoRedoHistory
Fore
SplineSet
772.700000167 -18 m 0
 897.700001597 -18 1052.50000155 12.8000006676 1157.79999924 63 c 1
 1106.89999974 264.899996877 l 1
 1026.59999943 227.599996805 898.800000668 199.799996614 800.100000024 199.799996614 c 0
 578.199995995 199.799996614 381.799996614 328.30000031 381.799996614 677.699999928 c 0
 381.799996614 1016.29999983 575.59999609 1156.00000334 791.799999714 1156.00000334 c 0
 892.700000167 1156.00000334 1004.30000031 1128.30000317 1088.90000021 1080.70000303 c 1
 1161.8999995 1262.50000012 l 1
 1056.00000024 1330.5999999 918.000000477 1370.20000005 774.299999833 1370.20000005 c 0
 427.899998069 1370.20000005 111.200000763 1153.09999764 111.200000763 681 c 0
 111.200000763 211.000001431 401.899999738 -18 772.700000167 -18 c 0
EndSplineSet
EndChar

StartChar: D
Encoding: 68 68 3
Width: 1454
VWidth: 0
Flags: HW
HStem: 0 88 1266 88
VStem: 1196 114
LayerCount: 2
UndoRedoHistory
Layer: 1
Undoes
EndUndoes
Redoes
EndRedoes
EndUndoRedoHistory
Fore
SplineSet
161.800001383 0 m 1
 598.500000596 0 l 2
 1040.20000029 0 1343.29999912 243.399999619 1343.29999912 682.599999905 c 0
 1343.29999912 1138.90000045 1021.89999998 1352.20000005 574.900000453 1352.20000005 c 2
 161.800001383 1352.20000005 l 1
 161.800001383 0 l 1
432.399997234 1154.40000296 m 1
 583.299999833 1154.40000296 l 2
 899.500001788 1154.40000296 1073.60000324 1009.80000257 1073.60000324 677.699999928 c 0
 1073.60000324 373.799997568 910.200002432 203.199996948 609.199999809 203.199996948 c 2
 432.399997234 203.199996948 l 1
 432.399997234 1154.40000296 l 1
EndSplineSet
EndChar

StartChar: E
Encoding: 69 69 4
Width: 1170
VWidth: 0
Flags: HW
LayerCount: 2
UndoRedoHistory
Layer: 1
Undoes
EndUndoes
Redoes
EndRedoes
EndUndoRedoHistory
Fore
SplineSet
161.800001383 0 m 1
 1033.4999994 0 l 1
 1049.69999921 203.199996948 l 1
 432.399997234 203.199996948 l 1
 432.399997234 609.700001121 l 1
 998.999998569 609.700001121 l 1
 998.999998569 807.499998212 l 1
 432.399997234 807.499998212 l 1
 432.399997234 1154.40000296 l 1
 1030.39999962 1154.40000296 l 1
 1040.69999945 1352.20000005 l 1
 161.800001383 1352.20000005 l 1
 161.800001383 0 l 1
EndSplineSet
EndChar

StartChar: F
Encoding: 70 70 5
Width: 1098
VWidth: 0
Flags: HW
LayerCount: 2
UndoRedoHistory
Layer: 1
Undoes
EndUndoes
Redoes
EndRedoes
EndUndoRedoHistory
Fore
SplineSet
161.800001383 0 m 1
 432.79999733 0 l 1
 432.79999733 578.700001597 l 1
 988.999997616 578.700001597 l 1
 988.999997616 775.099998593 l 1
 432.79999733 775.099998593 l 1
 432.79999733 1145.40000319 l 1
 1043.59999728 1145.40000319 l 1
 1055.29999721 1352.20000005 l 1
 161.800001383 1352.20000005 l 1
 161.800001383 0 l 1
EndSplineSet
EndChar

StartChar: G
Encoding: 71 71 6
Width: 1373
VWidth: 0
Flags: HW
LayerCount: 2
UndoRedoHistory
Layer: 1
Undoes
EndUndoes
Redoes
EndRedoes
EndUndoRedoHistory
Fore
SplineSet
760.400000572 -18 m 0
 943.60000062 -18 1092.1000005 16.3999998569 1238.70000017 79.7999994755 c 1
 1238.70000017 721.899998784 l 1
 717.200002909 721.899998784 l 1
 716.300002694 524.800001383 l 1
 1005.00000334 524.800001383 l 1
 1005.00000334 234.223873015 l 1
 956.348352928 214.672216435 889.4406391 198.899996638 774.000001192 198.899996638 c 0
 503.799997568 198.899996638 380.899996638 387.699998021 380.899996638 681.999999762 c 0
 380.899996638 980.200000763 547.899997354 1157.80000329 802.599999666 1157.80000329 c 0
 917.50000298 1157.80000329 1030.70000255 1124.20000219 1146.20000076 1067.20000291 c 1
 1210.29999983 1265.89999998 l 1
 1073.60000086 1336.80000019 954.199999809 1370.20000005 788.500000119 1370.20000005 c 0
 410.699998736 1370.20000005 110.300000787 1113.99999857 110.300000787 679.199999809 c 0
 110.300000787 259.000000715 357.199999809 -18 760.400000572 -18 c 0
EndSplineSet
EndChar

StartChar: H
Encoding: 72 72 7
Width: 1451
VWidth: 0
Flags: HW
LayerCount: 2
UndoRedoHistory
Layer: 1
Undoes
EndUndoes
Redoes
EndRedoes
EndUndoRedoHistory
Fore
SplineSet
161.400001287 0 m 1
 431.999997139 0 l 1
 431.999997139 594.700001597 l 1
 1019.90000212 594.700001597 l 1
 1019.90000212 0 l 1
 1290.49999797 0 l 1
 1290.49999797 1352.20000005 l 1
 1019.90000212 1352.20000005 l 1
 1019.90000212 796.299998403 l 1
 431.999997139 796.299998403 l 1
 431.999997139 1352.20000005 l 1
 161.400001287 1352.20000005 l 1
 161.400001287 0 l 1
EndSplineSet
EndChar

StartChar: I
Encoding: 73 73 8
Width: 822
VWidth: 0
Flags: HW
HStem: 0 80 1274 80
VStem: 104 494
LayerCount: 2
UndoRedoHistory
Layer: 1
Undoes
EndUndoes
Redoes
EndRedoes
EndUndoRedoHistory
Fore
SplineSet
118.399999619 1352.20000005 m 1
 118.399999619 1192.00000238 l 1
 277.800000429 1192.00000238 l 1
 277.800000429 160.199997663 l 1
 118.399999619 160.199997663 l 1
 118.399999619 0 l 1
 704.199997187 0 l 1
 704.199997187 160.199997663 l 1
 548.399996281 160.199997663 l 1
 548.399996281 1192.00000238 l 1
 704.199997187 1192.00000238 l 1
 704.199997187 1352.20000005 l 1
 118.399999619 1352.20000005 l 1
EndSplineSet
EndChar

StartChar: J
Encoding: 74 74 9
Width: 828
VWidth: 0
Flags: HW
LayerCount: 2
UndoRedoHistory
Layer: 1
Undoes
EndUndoes
Redoes
EndRedoes
EndUndoRedoHistory
Fore
SplineSet
206.799996376 -212.89999783 m 2
 485.899997115 -212.89999783 667.099994302 -12.5999996662 667.099994302 297.699999213 c 2
 667.099994302 1352.20000005 l 1
 396.49999845 1352.20000005 l 1
 396.49999845 287.499998689 l 2
 396.49999845 173.399996042 339.499998212 2.59999895096 171.699997306 2.59999895096 c 2
 20.099999547 2.59999895096 l 1
 20.099999547 -212.89999783 l 1
 206.799996376 -212.89999783 l 2
EndSplineSet
EndChar

StartChar: K
Encoding: 75 75 10
Width: 1318
VWidth: 0
Flags: HW
LayerCount: 2
UndoRedoHistory
Layer: 1
Undoes
EndUndoes
Redoes
EndRedoes
EndUndoRedoHistory
Fore
SplineSet
161.800001383 0 m 1
 432.399997234 0 l 1
 432.399997234 522.485839717 l 1
 553.776229102 626.25144569 l 1
 995.600000381 0 l 1
 1307.19999576 0 l 1
 761.977977169 746.212952374 l 1
 1275.59999585 1352.20000005 l 1
 963.300000548 1352.20000005 l 1
 432.399997234 749.78443456 l 1
 432.399997234 1352.20000005 l 1
 161.800001383 1352.20000005 l 1
 161.800001383 0 l 1
EndSplineSet
EndChar

StartChar: L
Encoding: 76 76 11
Width: 1085
VWidth: 0
Flags: HW
LayerCount: 2
UndoRedoHistory
Layer: 1
Undoes
EndUndoes
Redoes
EndRedoes
EndUndoRedoHistory
Fore
SplineSet
161.800001383 0 m 1
 1028.89999855 0 l 1
 1041.49999821 203.199996948 l 1
 432.399997234 203.199996948 l 1
 432.399997234 1352.20000005 l 1
 161.800001383 1352.20000005 l 1
 161.800001383 0 l 1
EndSplineSet
EndChar

StartChar: M
Encoding: 77 77 12
Width: 1779
VWidth: 0
Flags: HW
LayerCount: 2
UndoRedoHistory
Layer: 1
Undoes
EndUndoes
Redoes
EndRedoes
EndUndoRedoHistory
Fore
SplineSet
161.800001383 0 m 1
 419.099997401 0 l 1
 428.099997163 535.600012302 l 1
 415.290630049 925.13207231 l 1
 787.300000072 189.299998403 l 1
 985.099997878 189.299998403 l 1
 1366.54190583 923.971180621 l 1
 1353.00000048 538.700012326 l 1
 1362.00000024 0 l 1
 1618.19999623 0 l 1
 1600.19999671 1352.20000005 l 1
 1332.8999995 1352.20000005 l 1
 890.562620992 484.729762509 l 1
 452.299998164 1352.20000005 l 1
 179.800000906 1352.20000005 l 1
 161.800001383 0 l 1
EndSplineSet
EndChar

StartChar: N
Encoding: 78 78 13
Width: 1497
VWidth: 0
Flags: HW
LayerCount: 2
UndoRedoHistory
Layer: 1
Undoes
EndUndoes
Redoes
EndRedoes
EndUndoRedoHistory
Fore
SplineSet
161.800001383 0 m 1
 428.099996924 0 l 1
 428.099996924 452.500010371 l 1
 408.653221271 994.195066121 l 1
 1039.0000031 0 l 1
 1335.99999809 0 l 1
 1335.99999809 1352.20000005 l 1
 1069.70000255 1352.20000005 l 1
 1069.70000255 779.599992514 l 1
 1085.54331537 334.891680907 l 1
 448.499996543 1352.20000005 l 1
 161.800001383 1352.20000005 l 1
 161.800001383 0 l 1
EndSplineSet
EndChar

StartChar: O
Encoding: 79 79 14
Width: 1557
VWidth: 0
Flags: HW
HStem: -18 90 1282 90
VStem: 140 114 1299 114
LayerCount: 2
UndoRedoHistory
Layer: 1
Undoes
EndUndoes
Redoes
EndRedoes
EndUndoRedoHistory
Fore
SplineSet
779.899999976 -18 m 0
 1176.00000072 -18 1446.29999912 245.500000596 1446.29999912 673.899999738 c 0
 1446.29999912 1108.19999933 1172.70000041 1370.20000005 780 1370.20000005 c 0
 385.999999285 1370.20000005 111.200000763 1108.59999943 111.200000763 674.099999785 c 0
 111.200000763 244.600000381 382.999999046 -18 779.899999976 -18 c 0
779.799999952 196.19999671 m 0
 537.499996543 196.19999671 381.799996614 390.999998093 381.799996614 672.299999833 c 0
 381.799996614 959.900001884 539.699996829 1154.20000339 779.899999976 1154.20000339 c 0
 1020.20000315 1154.20000339 1175.70000327 959.700001836 1175.70000327 672.299999833 c 0
 1175.70000327 390.999998093 1022.10000336 196.19999671 779.799999952 196.19999671 c 0
EndSplineSet
EndChar

StartChar: P
Encoding: 80 80 15
Width: 1247
VWidth: 0
Flags: HW
LayerCount: 2
UndoRedoHistory
Layer: 1
Undoes
EndUndoes
Redoes
EndRedoes
EndUndoRedoHistory
Fore
SplineSet
161.800001383 0 m 1
 432.399997234 0 l 1
 432.399997234 596.900001884 l 1
 676.999999285 596.900001884 l 2
 1055.89999688 596.900001884 1187.29999673 754.200001001 1187.29999673 995.700000882 c 0
 1187.29999673 1276.29999959 970.199997902 1352.20000005 677.499999404 1352.20000005 c 2
 161.800001383 1352.20000005 l 1
 161.800001383 0 l 1
432.399997234 1154.40000296 m 1
 677.699999213 1154.40000296 l 2
 839.899999499 1154.40000296 916.700000882 1112.00000262 916.700000882 988.600001097 c 0
 916.700000882 865.899998784 864.099999547 802.79999876 653.799999952 802.79999876 c 2
 432.399997234 802.79999876 l 1
 432.399997234 1154.40000296 l 1
EndSplineSet
EndChar

StartChar: Q
Encoding: 81 81 16
Width: 1557
VWidth: 0
Flags: HW
LayerCount: 2
UndoRedoHistory
Layer: 1
Undoes
EndUndoes
Redoes
EndRedoes
EndUndoRedoHistory
Fore
SplineSet
1162.5000006 -452.19999814 m 1
 1320.89999807 -313.800000191 l 1
 1213.49999893 -206.100000978 1114.29999816 -37.3000012636 1068.89999807 40.6999994516 c 1
 844.800001621 -13.5999994278 l 1
 922.600001812 -158.100000024 1058.70000207 -376.599998713 1162.5000006 -452.19999814 c 1
EndSplineSet
Refer: 14 79 N 1 0 0 1 0 0 2
EndChar

StartChar: R
Encoding: 82 82 17
Width: 1325
VWidth: 0
Flags: HW
HStem: 675 90 1266 88
VStem: 1049 109
LayerCount: 2
UndoRedoHistory
Layer: 1
Undoes
EndUndoes
Redoes
EndRedoes
EndUndoRedoHistory
Fore
SplineSet
161.800001383 0 m 1
 432.399997234 0 l 1
 432.399997234 578.700002551 l 1
 722.659014096 578.700002551 l 1
 815.400002241 345.100003362 l 1
 964.900003552 0 l 1
 1249.19999909 0 l 1
 1065.89999783 403.900003076 l 1
 971.872516292 617.579249596 l 1
 1099.17303707 671.100470768 1198.49999893 762.046715124 1198.49999893 968.900001407 c 0
 1198.49999893 1269.799999 999.800001383 1352.20000005 696.700002074 1352.20000005 c 2
 161.800001383 1352.20000005 l 1
 161.800001383 0 l 1
432.399997234 1154.40000296 m 1
 708.200001717 1154.40000296 l 2
 877.200002909 1154.40000296 928.400003195 1089.70000231 928.400003195 965.200001478 c 0
 928.400003195 821.400000334 884.50000298 757.800000191 695.500001073 757.800000191 c 2
 432.399997234 757.800000191 l 1
 432.399997234 1154.40000296 l 1
EndSplineSet
EndChar

StartChar: S
Encoding: 83 83 18
Width: 1166
VWidth: 0
Flags: HW
LayerCount: 2
UndoRedoHistory
Layer: 1
Undoes
EndUndoes
Redoes
EndRedoes
EndUndoRedoHistory
Fore
SplineSet
572.299999833 -18 m 0
 856.499998689 -18 1059.19999838 114.199998856 1060.69999874 377.199999094 c 0
 1061.99999905 596.499999642 951.299997687 701.899998546 721.799998999 780.299998403 c 2
 507.899999022 853.699998736 l 2
 437.099996686 878.099999785 398.599996328 924.999999762 399.199996471 996.800001383 c 0
 399.999996662 1111.50000322 482.999998808 1154.20000339 618.099999309 1154.20000339 c 0
 741.900000453 1154.20000339 867.800000191 1098.60000277 953.299998641 1060.70000327 c 1
 1032.29999793 1262.19999981 l 1
 917.39999938 1329.39999938 768.599999666 1370.20000005 609.399999857 1370.20000005 c 0
 347.500001311 1370.20000005 147.900000691 1245.30000174 146.500000358 991.800001383 c 0
 145.600000143 802.900001645 250.700000405 687.000002623 414.000000715 632.400002241 c 2
 643.200000525 556.200001955 l 2
 750.700003028 519.500000834 805.700003028 467.300000787 805.000002861 380.399998903 c 0
 804.100002646 250.399997234 729.800001383 196.19999671 581.799999714 196.19999671 c 0
 444.399998426 196.19999671 287.399999857 241.299997211 208.999999523 293.199997663 c 1
 129.800000429 90.800000906 l 1
 238.899998784 27.300001502 388.199997902 -18 572.299999833 -18 c 0
EndSplineSet
EndChar

StartChar: T
Encoding: 84 84 19
Width: 1137
VWidth: 0
Flags: HW
LayerCount: 2
UndoRedoHistory
Layer: 1
Undoes
EndUndoes
Redoes
EndRedoes
EndUndoRedoHistory
Fore
SplineSet
433.400001049 0 m 1
 703.999996901 0 l 1
 703.999996901 1137.00000358 l 1
 1089.29999793 1137.00000358 l 1
 1089.29999793 1352.20000005 l 1
 48.6000001431 1352.20000005 l 1
 48.6000001431 1137.00000358 l 1
 433.400001049 1137.00000358 l 1
 433.400001049 0 l 1
EndSplineSet
EndChar

StartChar: U
Encoding: 85 85 20
Width: 1422
VWidth: 0
Flags: HW
LayerCount: 2
UndoRedoHistory
Layer: 1
Undoes
EndUndoes
Redoes
EndRedoes
EndUndoRedoHistory
Fore
SplineSet
711.39999938 -18 m 0
 1060.39999986 -18 1276.99999833 175.800000906 1276.99999833 485.500000358 c 2
 1276.99999833 1352.20000005 l 1
 1006.40000248 1352.20000005 l 1
 1006.40000248 504.299999833 l 2
 1006.40000248 301.199997902 902.700001597 198.899996638 711.39999938 198.899996638 c 0
 523.999996662 198.899996638 416.599996328 300.39999795 416.599996328 503.499999881 c 2
 416.599996328 1352.20000005 l 1
 146.000000477 1352.20000005 l 1
 146.000000477 486.700000405 l 2
 146.000000477 174.300001025 361.699998975 -18 711.39999938 -18 c 0
EndSplineSet
EndChar

StartChar: V
Encoding: 86 86 21
Width: 1351
VWidth: 0
Flags: HW
LayerCount: 2
UndoRedoHistory
Layer: 1
Undoes
EndUndoes
Redoes
EndRedoes
EndUndoRedoHistory
Fore
SplineSet
524.100001931 0 m 1
 826.199995756 0 l 1
 1287.59999752 1352.20000005 l 1
 1000.90000212 1352.20000005 l 1
 762.899999499 573.799996853 l 1
 679.626376314 291.015154105 l 1
 594.599997997 572.399996758 l 1
 352.99999547 1352.20000005 l 1
 64.4000000954 1352.20000005 l 1
 524.100001931 0 l 1
EndSplineSet
EndChar

StartChar: W
Encoding: 87 87 22
Width: 1911
VWidth: 0
Flags: HW
LayerCount: 2
UndoRedoHistory
Layer: 1
Undoes
EndUndoes
Redoes
EndRedoes
EndUndoRedoHistory
Fore
SplineSet
407.800002337 0 m 1
 661.899998546 0 l 1
 957.199675734 985.135288285 l 1
 1232.30000317 0 l 1
 1488.4999994 0 l 1
 1875.80000043 1352.10000002 l 1
 1612.00000453 1352.10000002 l 1
 1354.92142212 351.078586982 l 1
 1078.3999989 1342.89999926 l 1
 833.600002289 1342.89999926 l 1
 544.323254362 355.719770596 l 1
 299.499996543 1352.10000002 l 1
 35.2000007629 1352.10000002 l 1
 407.800002337 0 l 1
EndSplineSet
EndChar

StartChar: X
Encoding: 88 88 23
Width: 1310
VWidth: 0
Flags: HW
LayerCount: 2
UndoRedoHistory
Layer: 1
Undoes
EndUndoes
Redoes
EndRedoes
EndUndoRedoHistory
Fore
SplineSet
970.800001621 0 m 1
 1261.59999657 0 l 1
 807.171119708 683.8178582 l 1
 1241.79999709 1352.20000005 l 1
 968.700001359 1352.20000005 l 1
 669.989974431 890.246018303 l 1
 362.999996662 1352.20000005 l 1
 78.2000014782 1352.20000005 l 1
 510.411714943 697.442349506 l 1
 51.0000026226 0 l 1
 327.899998069 0 l 1
 654.023869697 479.884254465 l 1
 970.800001621 0 l 1
EndSplineSet
EndChar

StartChar: Y
Encoding: 89 89 24
Width: 1245
VWidth: 0
Flags: HW
LayerCount: 2
UndoRedoHistory
Layer: 1
Undoes
EndUndoes
Redoes
EndRedoes
EndUndoRedoHistory
Fore
SplineSet
491.700001121 0 m 1
 756.899997115 0 l 1
 756.899997115 520.339440496 l 1
 1200.09999692 1352.20000005 l 1
 921.300001502 1352.20000005 l 1
 622.466923217 749.4316025 l 1
 328.999995708 1352.20000005 l 1
 45.8000004292 1352.20000005 l 1
 491.700001121 517.076959428 l 1
 491.700001121 0 l 1
EndSplineSet
EndChar

StartChar: Z
Encoding: 90 90 25
Width: 1191
VWidth: 0
Flags: HW
LayerCount: 2
UndoRedoHistory
Layer: 1
Undoes
EndUndoes
Redoes
EndRedoes
EndUndoRedoHistory
Fore
SplineSet
144.999999762 0 m 1
 1076.39999819 0 l 1
 1077.49999845 203.199996948 l 1
 488.648824968 203.199996948 l 1
 1068.79999852 1176.5000025 l 1
 1067.89999831 1352.20000005 l 1
 155.500000596 1352.20000005 l 1
 155.500000596 1154.40000296 l 1
 750.48133546 1154.40000296 l 1
 144.999999762 164.099998116 l 1
 144.999999762 0 l 1
EndSplineSet
EndChar

StartChar: a
Encoding: 97 97 26
Width: 1056
VWidth: 0
Flags: HW
HStem: -14 86 500 77 919 86
VStem: 118 112 787 30 818 80
LayerCount: 2
UndoRedoHistory
Layer: 1
Undoes
EndUndoes
Redoes
EndRedoes
EndUndoRedoHistory
Fore
SplineSet
465.399998665 155.699997783 m 0
 380.799998522 155.699997783 321.799997568 202.499997973 321.799997568 286.699999213 c 0
 321.799997568 407.500000119 402.899997115 451.400001287 590.000000715 465.800000906 c 2
 690.700002551 473.588516351 l 1
 690.700002551 258.249086964 l 1
 638.854028644 208.803246356 548.875794581 155.699997783 465.399998665 155.699997783 c 0
691.600002527 631.729485165 m 1
 510.500002265 618.399998903 l 2
 248.800000191 599.499999404 98.2000005245 508.199998856 98.2000005245 285.699999213 c 0
 98.2000005245 81.8999999762 239.600000143 -17.5999999046 416.000000238 -17.5999999046 c 0
 537.333922155 -17.5999999046 652.801247969 34.0854615458 726.565379419 113.586653151 c 1
 753.200001717 0.100000023842 l 1
 932.199999094 0.100000023842 l 1
 932.199999094 659.599999905 l 2
 932.199999094 932.399999619 761.799999475 1036.49999917 528.899999738 1036.49999917 c 0
 409.599999905 1036.49999917 267.399999857 1008.49999893 136.100001216 953.599999189 c 1
 186.600000858 791.600001335 l 1
 290.000000477 829.800001621 405.600000858 857.800001621 497.600001097 857.800001621 c 0
 614.600002527 857.800001621 691.600002527 810.900000453 691.600002527 687.69999969 c 2
 691.600002527 631.729485165 l 1
EndSplineSet
EndChar

StartChar: acute
Encoding: 180 180 27
Width: 548
VWidth: 0
Flags: HW
LayerCount: 2
UndoRedoHistory
Layer: 1
Undoes
EndUndoes
Redoes
EndRedoes
EndUndoRedoHistory
Fore
SplineSet
154.799998045 1090.50000226 m 1
 302.499995828 1090.50000226 l 1
 595.599995375 1450.10000193 l 1
 316.49999845 1450.10000193 l 1
 154.799998045 1090.50000226 l 1
EndSplineSet
EndChar

StartChar: ampersand
Encoding: 38 38 28
Width: 1335
VWidth: 0
Flags: HW
HStem: -18 90 1282 90
VStem: 126 113 292 98 857 103
LayerCount: 2
UndoRedoHistory
Layer: 1
Undoes
EndUndoes
Redoes
EndRedoes
EndUndoRedoHistory
Fore
SplineSet
576.899999022 855.999998331 m 1
 670.400000572 906.199998856 764.300002456 967.799999952 764.300002456 1069.60000062 c 0
 764.300002456 1157.3000015 705.30000174 1198.30000222 622.100000262 1198.30000222 c 0
 534.199999094 1198.30000222 473.699997783 1155.30000126 473.699997783 1063.60000062 c 0
 473.699997783 984.500000119 515.899998069 919.599998951 576.899999022 855.999998331 c 1
593.30000031 167.399997473 m 0
 694.400001764 167.399997473 791.200002193 199.299997449 866.000002861 257.599997997 c 1
 821.900004029 306.19999671 563.099998593 588.700002551 520.799999714 635.500001311 c 1
 414.19999814 577.200000763 329.899997592 515.499999404 329.899997592 393.79999876 c 0
 329.899997592 240.49999845 441.299997926 167.399997473 593.30000031 167.399997473 c 0
587.700000167 -2.70000040531 m 0
 336.19999814 -2.70000040531 116.100000262 113.300000548 116.100000262 383.999998808 c 0
 116.100000262 580.199998856 254.69999969 684.699999213 412.800000906 769.999999523 c 1
 340.199999809 853.000000477 270.400000572 938.500000596 270.400000572 1055.00000072 c 0
 270.400000572 1261.19999957 430.899999499 1360.30000031 615.800000429 1360.30000031 c 0
 786.900001168 1360.30000031 971.69999969 1273.79999971 971.69999969 1069.90000045 c 0
 971.69999969 901.600000858 831.599999189 796.700000405 687.599997759 725.100000024 c 1
 994.000001192 387.299996257 l 1
 1039.90000141 440.299996257 1091.50000203 522.399997473 1125.400002 588.099997878 c 1
 1285.5999999 484.499999166 l 1
 1246.30000007 405.399999142 1186.4999994 313.799998045 1126.89999926 247.899998069 c 1
 1311.59999824 53.6999992132 l 1
 1115.00000095 1.69999945164 l 1
 991.900001168 131.299999356 l 1
 876.400001049 45.7999992371 740.000001669 -2.70000040531 587.700000167 -2.70000040531 c 0
EndSplineSet
EndChar

StartChar: asciicircum
Encoding: 94 94 29
Width: 1097
VWidth: 0
Flags: HW
LayerCount: 2
UndoRedoHistory
Layer: 1
Undoes
EndUndoes
Redoes
EndRedoes
EndUndoRedoHistory
Fore
SplineSet
58.9000030756 498.500001788 m 1
 475.40000248 1352.50000131 l 1
 594.800001144 1352.50000131 l 1
 1036.80000043 498.500001788 l 1
 841.700003743 498.500001788 l 1
 536.400001764 1098.20000553 l 1
 254.399999857 498.500001788 l 1
 58.9000030756 498.500001788 l 1
EndSplineSet
EndChar

StartChar: asciitilde
Encoding: 126 126 30
Width: 1137
VWidth: 0
Flags: HW
LayerCount: 2
UndoRedoHistory
Layer: 1
Undoes
EndUndoes
Redoes
EndRedoes
EndUndoRedoHistory
Fore
SplineSet
187.39999795 437.100000978 m 1
 109.899999499 567.999999285 l 1
 156.199999332 664.799999475 234.699999452 747.199999332 370.099998832 747.199999332 c 0
 447.599998713 747.199999332 524.699997783 721.999999523 603.199998379 687.799999237 c 0
 683.599998713 652.399999142 743.999999285 629.199998617 794.899999499 629.199998617 c 0
 863.299999833 629.199998617 926.200000286 668.799999714 994.799998999 751.199999571 c 1
 1068.09999788 625.600001335 l 1
 1020.39999795 532.200000525 912.199999332 447.500001073 782.599999905 447.500001073 c 0
 698.800000668 447.500001073 634.300000548 474.300001025 550.500000834 511.800000906 c 1
 480.799999714 544.600001335 426.999999046 567.999999285 362.799998999 567.999999285 c 0
 284.099998832 567.999999285 224.499998212 506.100001454 187.39999795 437.100000978 c 1
EndSplineSet
EndChar

StartChar: asterisk
Encoding: 42 42 31
Width: 1096
VWidth: 0
Flags: HW
LayerCount: 2
UndoRedoHistory
Layer: 1
Undoes
EndUndoes
Redoes
EndRedoes
EndUndoRedoHistory
Fore
SplineSet
665.399991751 465.200002193 m 1
 832.099984765 572.900001168 l 1
 832.099984765 572.900001168 698.09999454 803.500003695 663.899995446 846.700002551 c 1
 905.39997983 916.000002861 l 1
 853.599982023 1119.40000057 l 1
 616.299997449 993.200000048 l 1
 638.899995923 1341.40000129 l 1
 453.000004292 1341.40000129 l 1
 477.300002694 993.200000048 l 1
 242.800018072 1119.40000057 l 1
 188.500020385 916.000002861 l 1
 428.400004625 846.700002551 l 1
 432.100005507 841.500001311 247.900012374 589.60000515 261.000015497 572.900001168 c 1
 253.214245612 568.03389499 430.124503132 477.165744885 432.230681754 467.693541857 c 1
 544.899999976 757.600003958 l 1
 665.399991751 465.200002193 l 1
432.230681754 467.693541857 m 2
 432.288635034 467.432906205 432.214240367 467.233897184 432.000008345 467.10000217 c 2
 432.230681754 467.693541857 l 2
EndSplineSet
EndChar

StartChar: at
Encoding: 64 64 32
Width: 1762
VWidth: 0
Flags: HW
LayerCount: 2
UndoRedoHistory
Layer: 1
Undoes
EndUndoes
Redoes
EndRedoes
EndUndoRedoHistory
Fore
SplineSet
821.800002098 351.499997973 m 0
 725.000001669 351.499997973 679.100000978 435.799997568 679.100000978 547.099999547 c 0
 679.100000978 724.000000238 781.700001359 893.800000906 950.300001979 893.800000906 c 0
 983.39043158 893.800000906 1028.82811573 886.629258901 1066.24340343 878.285351759 c 1
 1052.57286511 798.841144376 1029.4661972 665.904906857 1028.90000308 661.799999475 c 0
 998.500003219 484.699998975 959.300002456 351.499997973 821.800002098 351.499997973 c 0
864.500002265 -128.700002313 m 0
 1037.40000272 -128.700002313 1220.00000238 -89.1000021696 1336.30000269 -11.200001955 c 1
 1294.90000284 105.599997044 l 1
 1174.60000253 36.7999968529 1014.20000267 1.09999668598 865.500002265 1.09999668598 c 0
 489.200001955 1.09999668598 298.599999666 279.399995565 298.599999666 586.899999261 c 0
 298.599999666 912.000002384 516.500002265 1233.20000196 917.800002575 1233.20000196 c 0
 1323.7000016 1233.20000196 1481.40000486 970.800002575 1481.40000486 719.299999595 c 0
 1481.40000486 465.400000095 1374.40000534 359.199997902 1277.00000262 359.199997902 c 0
 1216.30000174 359.199997902 1171.20000219 404.599998713 1171.20000219 473.799999475 c 0
 1171.20000219 584.999999762 1205.50000226 751.000000238 1230.80000234 932.900000691 c 1
 1153.00000215 976.30000031 1016.40000296 1001.50000036 929.400002718 1001.50000036 c 0
 669.000002384 1001.50000036 523.300002217 766.200000763 523.300002217 551.39999938 c 0
 523.300002217 382.099998116 614.000002623 237.999998569 805.200002193 237.999998569 c 0
 934.349657598 237.999998569 1017.57801277 334.074687727 1059.55383807 422.707866802 c 1
 1088.58947083 314.61420238 1164.51461336 238.499999014 1276.50000274 238.499998927 c 0
 1436.80000401 238.499998927 1625.80000377 396.899999261 1625.80000377 711.399999619 c 0
 1625.80000377 1108.70000064 1318.50000346 1362.40000105 925.200002432 1362.40000105 c 0
 471.20000124 1362.40000105 136.900001168 1035.00000024 136.900001168 592.199999094 c 0
 136.900001168 148.39999795 438.800001144 -128.700002313 864.500002265 -128.700002313 c 0
EndSplineSet
EndChar

StartChar: b
Encoding: 98 98 33
Width: 1157
VWidth: 0
Flags: HW
HStem: -18 86 918 86
VStem: 180 117 180 88 951 114
LayerCount: 2
UndoRedoHistory
Layer: 1
Undoes
EndUndoes
Redoes
EndRedoes
EndUndoRedoHistory
Fore
SplineSet
598.100000978 167.899997354 m 0
 461.799998999 167.899997354 370.499997973 271.599998713 370.499997973 524.899999499 c 1
 372.199997902 755.199999571 465.899998069 852.30000174 603.400001049 852.30000174 c 0
 739.400003672 852.30000174 827.700003266 748.299999356 827.700003266 513.199999332 c 0
 827.700003266 276.899999022 733.700003505 167.899997354 598.100000978 167.899997354 c 0
654.299999356 -18 m 0
 910.700000167 -18 1069.49999988 199.799999475 1069.49999988 515.699999213 c 0
 1069.49999988 817.099999547 920.900000215 1037.29999912 658.699999452 1037.29999912 c 0
 534.293415066 1037.29999912 435.956009861 977.024023266 371.265701905 904.56740212 c 1
 375.299997926 1069.59999776 l 1
 375.299997926 1370.40000057 l 1
 133.20000124 1355.00000072 l 1
 133.20000124 0.899999976158 l 1
 340.899998069 0.899999976158 l 1
 358.515249123 120.277708155 l 1
 424.453666589 42.6942265381 534.529723851 -18 654.299999356 -18 c 0
EndSplineSet
EndChar

StartChar: backslash
Encoding: 92 92 34
Width: 848
VWidth: 0
Flags: HW
LayerCount: 2
UndoRedoHistory
Layer: 1
Undoes
EndUndoes
Redoes
EndRedoes
EndUndoRedoHistory
Fore
SplineSet
551.800003052 -5.60000133514 m 1
 100.900000691 1337.80000043 l 1
 316.599997044 1337.80000043 l 1
 763.099999547 -5.60000133514 l 1
 551.800003052 -5.60000133514 l 1
EndSplineSet
EndChar

StartChar: bar
Encoding: 124 124 35
Width: 565
VWidth: 0
Flags: HW
LayerCount: 2
UndoRedoHistory
Layer: 1
Undoes
EndUndoes
Redoes
EndRedoes
EndUndoRedoHistory
Fore
SplineSet
197.599996328 -268.50000298 m 1
 197.599996328 1456.10000002 l 1
 386.499993443 1456.10000002 l 1
 386.499993443 -268.50000298 l 1
 197.599996328 -268.50000298 l 1
EndSplineSet
EndChar

StartChar: braceleft
Encoding: 123 123 36
Width: 697
VWidth: 0
Flags: HW
LayerCount: 2
UndoRedoHistory
Layer: 1
Undoes
EndUndoes
Redoes
EndRedoes
EndUndoRedoHistory
Fore
SplineSet
625.399998903 -246.800000429 m 1
 373.600000143 -246.800000429 247.600001812 -180.399998665 247.600001812 34.2000010014 c 2
 247.600001812 270.999998569 l 2
 247.600001812 410.499999404 214.000002384 465.100001693 55.8000016212 465.400001764 c 1
 55.8000016212 664.899998546 l 1
 219.700002074 665.799998522 247.600001812 715.600001097 247.600001812 856.500001788 c 2
 247.600001812 1112.90000021 l 2
 247.600001812 1321.69999921 379.900000691 1385.70000064 625.399998903 1385.80000067 c 1
 625.399998903 1198.00000358 l 1
 498.399998665 1196.00000358 475.999997854 1161.60000277 475.999997854 1041.90000117 c 2
 475.999997854 800.800001144 l 1
 474.199997902 681.600001335 425.299998403 619.800001621 308.89999783 564.200000048 c 1
 417.299998403 532.699999928 476.099997878 455.099998593 475.999997854 336.199999094 c 2
 475.999997854 93.3999991417 l 2
 475.999997854 -25.6000022888 497.199998617 -59.1000033617 625.399998903 -61.1000033617 c 1
 625.399998903 -246.800000429 l 1
EndSplineSet
EndChar

StartChar: braceright
Encoding: 125 125 37
Width: 697
VWidth: 0
Flags: HW
LayerCount: 2
UndoRedoHistory
Layer: 1
Undoes
EndUndoes
Redoes
EndRedoes
EndUndoRedoHistory
Fore
SplineSet
83.7000008821 -246.800000429 m 1
 83.7000008821 -60.8000032902 l 1
 210.700001121 -58.8000032902 232.200001955 -27.100002408 232.200001955 93.4999991655 c 2
 232.200001955 336.399999142 l 2
 232.200001955 457.399998903 287.400001287 519.199998617 400.200001955 565.800000429 c 1
 287.300001502 606.30000031 233.900001884 682.100001693 232.200001955 801.000001192 c 1
 232.200001955 1042.00000119 l 2
 232.200001955 1161.9000026 211.900001168 1196.30000365 83.7000008821 1198.30000365 c 1
 83.7000008821 1385.80000067 l 1
 334.599999666 1385.80000067 460.599997997 1321.19999886 460.599997997 1101.19999933 c 2
 460.599997997 856.300001979 l 2
 460.599997997 716.800001144 489.699997544 666.699998736 653.299998164 665.499998689 c 1
 653.299998164 466.000001907 l 1
 495.699997544 466.000001907 460.599997997 413.499999404 460.599997997 271.699998736 c 2
 460.599997997 22.5000001192 l 2
 460.599997997 -184.499998927 334.599998951 -246.700000405 83.7000008821 -246.800000429 c 1
EndSplineSet
EndChar

StartChar: bracketleft
Encoding: 91 91 38
Width: 740
VWidth: 0
Flags: HW
LayerCount: 2
UndoRedoHistory
Layer: 1
Undoes
EndUndoes
Redoes
EndRedoes
EndUndoRedoHistory
Fore
SplineSet
188.89999783 -125.900004268 m 1
 188.89999783 1425.99999809 l 1
 617.599997044 1425.99999809 l 1
 617.599997044 1255.80000043 l 1
 418.699994206 1255.80000043 l 1
 418.699994206 44.9999933243 l 1
 617.599997044 44.9999933243 l 1
 617.599997044 -125.900004268 l 1
 188.89999783 -125.900004268 l 1
EndSplineSet
EndChar

StartChar: bracketright
Encoding: 93 93 39
Width: 740
VWidth: 0
Flags: HW
LayerCount: 2
UndoRedoHistory
Layer: 1
Undoes
EndUndoes
Redoes
EndRedoes
EndUndoRedoHistory
Fore
SplineSet
122.999999285 -125.900004268 m 1
 122.999999285 44.0999933481 l 1
 321.900002122 44.0999933481 l 1
 321.900002122 1254.90000045 l 1
 122.999999285 1254.90000045 l 1
 122.999999285 1425.99999809 l 1
 551.599998474 1425.99999809 l 1
 551.599998474 -125.900004268 l 1
 122.999999285 -125.900004268 l 1
EndSplineSet
EndChar

StartChar: brokenbar
Encoding: 166 166 40
Width: 662
VWidth: 0
Flags: HW
LayerCount: 2
UndoRedoHistory
Layer: 1
Undoes
EndUndoes
Redoes
EndRedoes
EndUndoRedoHistory
Fore
SplineSet
242.899994493 748.10000217 m 1
 242.899994493 1411.10000122 l 1
 431.899991632 1411.10000122 l 1
 431.899991632 748.10000217 l 1
 242.899994493 748.10000217 l 1
242.899994493 -341.300001025 m 1
 242.899994493 322.899998069 l 1
 431.899991632 322.899998069 l 1
 431.899991632 -341.300001025 l 1
 242.899994493 -341.300001025 l 1
EndSplineSet
EndChar

StartChar: c
Encoding: 99 99 41
Width: 944
VWidth: 0
Flags: HW
HStem: -18 86 918 86
VStem: 120 112
LayerCount: 2
UndoRedoHistory
Layer: 1
Undoes
EndUndoes
Redoes
EndRedoes
EndUndoRedoHistory
Fore
SplineSet
578.100000024 -18 m 0
 755.69999826 -18 835.499998927 38.3999993801 867.999999046 62.1999995708 c 1
 835.499999166 234.099996924 l 1
 767.399999857 195.699997306 692.199999571 166.999997377 603.099999785 171.499997258 c 0
 447.299997211 177.799997091 329.199997425 289.299999356 329.199997425 509.999999285 c 0
 329.199997425 734.699999928 456.099997401 847.80000186 610.799999952 847.80000186 c 0
 710.399997711 847.80000186 782.699997783 811.200002909 819.199999332 789.800002098 c 1
 876.999998808 957.299999595 l 1
 797.599999428 1010.99999905 702.299999595 1037.29999912 582.100000262 1037.29999912 c 0
 304.500000119 1037.29999912 87.6000008583 848.799998283 87.6000008583 512.699999213 c 0
 87.6000008583 173.400000811 284.500000358 -18 578.100000024 -18 c 0
EndSplineSet
EndChar

StartChar: cedilla
Encoding: 184 184 42
Width: 518
VWidth: 0
Flags: HW
LayerCount: 2
UndoRedoHistory
Layer: 1
Undoes
EndUndoes
Redoes
EndRedoes
EndUndoRedoHistory
Fore
SplineSet
56.2000024319 -309.600003004 m 1
 253.099999547 -309.600003004 l 1
 304.599998951 52.4999982119 l 1
 169.700001836 52.4999982119 l 1
 56.2000024319 -309.600003004 l 1
EndSplineSet
EndChar

StartChar: cent
Encoding: 162 162 43
Width: 937
VWidth: 0
Flags: HW
LayerCount: 2
UndoRedoHistory
Layer: 1
Undoes
EndUndoes
Redoes
EndRedoes
EndUndoRedoHistory
Fore
SplineSet
569.999999285 -146 m 1
 652.999999046 -146 l 1
 652.999999046 1156 l 1
 569.999999285 1156 l 1
 569.999999285 -146 l 1
EndSplineSet
Refer: 41 99 N 1 0 0 1 0 0 2
EndChar

StartChar: colon
Encoding: 58 58 44
Width: 620
VWidth: 0
Flags: HW
LayerCount: 2
UndoRedoHistory
Layer: 1
Undoes
EndUndoes
Redoes
EndRedoes
EndUndoRedoHistory
Fore
SplineSet
187.599999189 769.200001955 m 1
 431.499996305 769.200001955 l 1
 431.499996305 1016.70000017 l 1
 187.599999189 1016.70000017 l 1
 187.599999189 769.200001955 l 1
187.599999189 -3.40000081062 m 1
 431.499996305 -3.40000081062 l 1
 431.499996305 253.599997044 l 1
 187.599999189 253.599997044 l 1
 187.599999189 -3.40000081062 l 1
EndSplineSet
EndChar

StartChar: comma
Encoding: 44 44 45
Width: 518
VWidth: 0
Flags: HW
LayerCount: 2
UndoRedoHistory
Layer: 1
Undoes
EndUndoes
Redoes
EndRedoes
EndUndoRedoHistory
Fore
SplineSet
133.500000119 -236.300000787 m 1
 296.299996734 -236.300000787 l 1
 304.599998713 -213.899995446 431.599994898 165.999994278 437.199996233 187.199999332 c 1
 441.399996042 239.699998736 l 1
 214.399998426 239.699998736 l 1
 213.099998116 218.299993634 136.200000763 -213.799995422 133.500000119 -236.300000787 c 1
EndSplineSet
EndChar

StartChar: copyright
Encoding: 169 169 46
Width: 1557
VWidth: 0
Flags: HW
LayerCount: 2
UndoRedoHistory
Layer: 1
Undoes
EndUndoes
Redoes
EndRedoes
EndUndoRedoHistory
Fore
SplineSet
782.500002742 -3.70000088215 m 0
 1159.70000231 -3.70000088215 1488.20000386 276.199997902 1488.20000386 689.900000453 c 0
 1488.20000386 1102.70000303 1157.90000236 1384.50000179 781.600002766 1384.50000179 c 0
 408.000003099 1384.50000179 79.0000016689 1103.600003 79.0000016689 689.900000453 c 0
 79.0000016689 276.199997902 408.900003076 -3.70000088215 782.500002742 -3.70000088215 c 0
782.500002742 100.599998236 m 0
 452.000003099 100.599998236 198.90000093 354.699997067 198.90000093 689.900000453 c 0
 198.90000093 1023.30000389 452.000003099 1279.20000267 781.600002766 1279.20000267 c 0
 1115.70000231 1279.20000267 1369.20000458 1023.20000386 1369.20000458 689.000000477 c 0
 1369.20000458 354.799997091 1116.60000229 100.599998236 782.500002742 100.599998236 c 0
774.900003791 233.799999475 m 0
 882.000003338 233.799999475 976.700003266 260.699999452 1050.30000365 308.599999666 c 1
 1003.6000042 413.699998736 l 1
 937.900003552 373.999998331 853.900003791 354.299998403 786.500003457 354.299998403 c 0
 611.400002718 354.299998403 496.300001264 483.299999118 496.300001264 682.400000811 c 0
 496.300001264 881.200001717 610.500002742 1014.00000262 782.900003314 1014.00000262 c 0
 849.400003433 1014.00000262 932.800003767 994.40000248 997.700003982 954.200001955 c 1
 1049.00000358 1058.90000117 l 1
 973.400003195 1110.20000148 880.200003147 1135.50000155 772.900003552 1135.50000155 c 0
 525.800003529 1135.50000155 351.800002337 934.900001407 351.800002337 681.700000644 c 0
 351.800002337 421.599999905 533.600003481 233.799999475 774.900003791 233.799999475 c 0
EndSplineSet
EndChar

StartChar: currency
Encoding: 164 164 47
Width: 1045
VWidth: 0
Flags: HW
LayerCount: 2
UndoRedoHistory
Layer: 1
Undoes
EndUndoes
Redoes
EndRedoes
EndUndoRedoHistory
Fore
SplineSet
531.600003004 425.899998069 m 0
 397.100001931 425.899998069 287.600001097 535.899998784 287.600001097 673.499999642 c 0
 287.600001097 810.200000525 397.100001931 922.100001216 531.600003004 922.100001216 c 0
 667.000004053 922.100001216 777.30000484 811.000000477 777.30000484 673.499999642 c 0
 777.30000484 535.999998808 668.000004053 425.899998069 531.600003004 425.899998069 c 0
922.300003886 210.200000048 m 1
 1010.00000262 302.999998808 l 1
 846.500002503 459.899999022 l 1
 888.700002789 523.999999046 911.600003004 594.199999332 911.600003004 673.499999642 c 0
 911.600003004 751.999999762 886.100002885 825.799999952 845.500002503 888.000000238 c 1
 1011.00000262 1046.50000036 l 1
 922.300003886 1138.49999917 l 1
 754.800003767 980.999999046 l 1
 690.400003672 1030.99999928 616.80000329 1057.69999945 531.600003004 1057.69999945 c 0
 448.20000267 1057.69999945 369.200002432 1029.4999994 307.300002217 982.899999022 c 1
 144.400002003 1138.49999917 l 1
 50.8000032902 1047.70000041 l 1
 217.600003481 888.000000238 l 1
 175.300003171 822.800000191 151.400002956 751.499999881 151.400002956 673.499999642 c 0
 151.400002956 594.499999404 177.000003099 521.699999213 217.600003481 459.899999022 c 1
 51.8000032902 301.399998903 l 1
 144.400002003 211.200000048 l 1
 305.600002289 366.000000238 l 1
 369.200002432 316.799999952 445.400002718 290.299999833 531.600003004 290.299999833 c 0
 616.000003338 290.299999833 692.1000036 319.499999881 754.800003767 366.800000191 c 1
 922.300003886 210.200000048 l 1
EndSplineSet
EndChar

StartChar: d
Encoding: 100 100 48
Width: 1156
VWidth: 0
Flags: HW
LayerCount: 2
UndoRedoHistory
Layer: 1
Undoes
EndUndoes
Redoes
EndRedoes
EndUndoRedoHistory
Fore
SplineSet
559.599999666 167.899997354 m 0
 413.999997377 167.899997354 329.399997473 273.599999666 329.399997473 510.499999642 c 0
 329.399997473 753.099999785 434.899997115 850.500001788 570.199999571 850.500001788 c 0
 709.800001383 850.500001788 791.500002503 758.399999857 791.500002503 495.499999642 c 1
 789.700002551 265.199999571 706.700002313 167.899997354 559.599999666 167.899997354 c 0
787.560838348 929.337089034 m 1
 727.12993152 996.336501183 636.989903078 1037.29999912 509.300001025 1037.29999912 c 0
 246.700000882 1037.29999912 87.6000008583 823.099999309 87.6000008583 515.199999571 c 0
 87.6000008583 198.499999642 246.000000477 -17.1000000238 509.600001097 -17.1000000238 c 0
 663.533205497 -17.1000000238 745.80803855 47.1757434578 795.085045765 114.282975375 c 1
 816.000002384 0 l 1
 1023.09999931 0 l 1
 1023.09999931 1370.40000057 l 1
 781.300002694 1355.00000072 l 1
 781.300002694 1053.50000036 l 1
 787.560838348 929.337089034 l 1
EndSplineSet
EndChar

StartChar: degree
Encoding: 176 176 49
Width: 751
VWidth: 0
Flags: HW
LayerCount: 2
UndoRedoHistory
Layer: 1
Undoes
EndUndoes
Redoes
EndRedoes
EndUndoRedoHistory
Fore
SplineSet
383.499999881 779.800001383 m 0
 564.899998784 779.800001383 671.599999666 919.000001192 671.599999666 1063.60000157 c 0
 671.599999666 1212.30000198 560.099998832 1340.30000198 383.499999881 1340.30000198 c 0
 204.600001097 1340.30000198 93.9000002146 1212.30000198 93.9000002146 1063.60000157 c 0
 93.9000002146 917.300001025 202.100001216 779.800001383 383.499999881 779.800001383 c 0
383.599999905 909.800000429 m 0
 309.399998903 909.800000429 240.49999845 967.100001454 240.49999845 1059.50000179 c 0
 240.49999845 1150.10000217 309.599998951 1204.60000324 384.499999881 1204.60000324 c 0
 457.90000093 1204.60000324 525.100001454 1150.10000217 525.100001454 1059.50000179 c 0
 525.100001454 967.300001502 457.90000093 909.800000429 383.599999905 909.800000429 c 0
EndSplineSet
EndChar

StartChar: dieresis
Encoding: 168 168 50
Width: 682
VWidth: 0
Flags: HW
LayerCount: 2
UndoRedoHistory
Layer: 1
Undoes
EndUndoes
Redoes
EndRedoes
EndUndoRedoHistory
Fore
SplineSet
443.000000954 1122.60000086 m 1
 626.899998784 1122.60000086 l 1
 626.899998784 1358.99999881 l 1
 443.000000954 1358.99999881 l 1
 443.000000954 1122.60000086 l 1
70.7000018358 1122.60000086 m 1
 255.399999619 1122.60000086 l 1
 255.399999619 1358.99999881 l 1
 70.7000018358 1358.99999881 l 1
 70.7000018358 1122.60000086 l 1
EndSplineSet
EndChar

StartChar: dollar
Encoding: 36 36 51
Width: 1169
VWidth: 0
Flags: HW
LayerCount: 2
UndoRedoHistory
Layer: 1
Undoes
EndUndoes
Redoes
EndRedoes
EndUndoRedoHistory
Fore
SplineSet
544.200000048 -17.979099995 m 1
 372.294198163 -13.8673199684 233.376298898 31.0079114324 129.800000429 90.800000906 c 1
 208.999999523 293.199997663 l 1
 287.399999857 241.299997211 444.399998426 196.19999671 581.799999714 196.19999671 c 0
 729.800001383 196.19999671 804.100002646 250.399997234 805.000002861 380.399998903 c 0
 805.700003028 467.300000787 750.700003028 519.500000834 643.200000525 556.200001955 c 2
 414.000000715 632.400002241 l 2
 250.700000405 687.000002623 145.600000143 802.900001645 146.500000358 991.800001383 c 0
 147.76980066 1223.91600165 314.732101128 1348.18700028 544.200000048 1367.33000008 c 1
 544.200000048 1537.40000176 l 1
 658.599998951 1537.40000176 l 1
 658.766998991 1369.27400007 l 1
 799.302099118 1361.61800015 929.320099123 1322.01299953 1032.29999793 1262.19999981 c 1
 953.299998641 1060.70000327 l 1
 867.800000191 1098.60000277 741.900000453 1154.20000339 618.099999309 1154.20000339 c 0
 482.999998808 1154.20000339 399.999996662 1111.50000322 399.199996471 996.800001383 c 0
 398.599996328 924.999999762 437.099996686 878.099999785 507.899999022 853.699998736 c 2
 721.799998999 780.299998403 l 2
 951.299997687 701.899998546 1061.99999905 596.499999642 1060.69999874 377.199999094 c 0
 1059.31249841 141.440418674 896.166498371 11.3382516038 658.633898959 -13.3457800824 c 1
 658.799998999 -169.800002337 l 1
 544.200000048 -169.800002337 l 1
 544.200000048 -17.979099995 l 1
EndSplineSet
EndChar

StartChar: e
Encoding: 101 101 52
Width: 1115
VWidth: 0
Flags: HW
HStem: -18 88 918 86
LayerCount: 2
UndoRedoHistory
Layer: 1
Undoes
EndUndoes
Redoes
EndRedoes
EndUndoRedoHistory
Fore
SplineSet
618.799998999 -18 m 0
 773.599998713 -18 899.899998307 9.80000019073 995.69999826 69.8999999762 c 1
 960.799998283 239.299997449 l 1
 911.399996519 216.499996543 798.299997211 163.59999752 641.899998784 163.59999752 c 0
 477.171696395 163.59999752 348.097168635 252.515431243 332.977907087 451.500000834 c 1
 1015.39999819 451.500000834 l 1
 1015.39999819 451.500000834 1022.19999814 540.799999475 1022.19999814 557.199999809 c 0
 1022.19999814 838.69999969 859.199998856 1037.29999912 584.099999785 1037.29999912 c 0
 299.700000882 1036.39999914 87.6000008583 828.199999571 87.6000008583 509.299999356 c 0
 87.6000008583 181.799999714 308.400000095 -18 618.799998999 -18 c 0
794.794747915 607.499998689 m 1
 339.448364531 607.499998689 l 1
 357.551483638 780.364781935 481.237081822 860.400001526 586.399999857 860.400001526 c 0
 702.34499864 860.400001526 781.37532536 777.49328158 794.794747915 607.499998689 c 1
EndSplineSet
EndChar

StartChar: eight
Encoding: 56 56 53
Width: 1246
VWidth: 0
Flags: HW
LayerCount: 2
UndoRedoHistory
Layer: 1
Undoes
EndUndoes
Redoes
EndRedoes
EndUndoRedoHistory
Fore
SplineSet
625.69999826 772.099999309 m 1
 486.899996877 804.099999547 403.499996543 885.600000143 403.499996543 1013.60000086 c 0
 403.499996543 1120.10000193 497.799997091 1188.40000248 625.69999826 1188.40000248 c 0
 753.799999475 1188.40000248 844.899999976 1120.10000193 844.899999976 1013.60000086 c 0
 844.899999976 885.600000143 763.799999714 804.099999547 625.69999826 772.099999309 c 1
625.69999826 145.799998045 m 0
 476.199996471 145.799998045 389.29999578 223.49999845 389.29999578 353.599999666 c 0
 389.29999578 491.100000739 490.099996924 577.400001049 625.69999826 612.600001097 c 1
 760.599999666 577.400001049 859.900000691 489.300000548 859.900000691 354.499999642 c 0
 859.900000691 222.599998236 776.800000191 145.799998045 625.69999826 145.799998045 c 0
625.69999826 -18 m 0
 871.999998093 -18 1082.4999975 112.099999547 1082.4999975 357.799999237 c 0
 1082.4999975 523.299999595 996.799996614 641.600000381 868.599994898 705.200000048 c 1
 980.8999964 765.199999809 1057.69999731 862.400000095 1057.69999731 1013.90000069 c 0
 1057.69999731 1243.30000007 864.899998307 1358.50000036 624.899998307 1358.50000036 c 0
 386.499998212 1358.50000036 189.899999261 1243.30000007 189.899999261 1013.90000069 c 0
 189.899999261 859.900000215 274.900000215 762.299999595 390.800001383 704.899999976 c 1
 254.499999642 641.100000024 164.399999142 527 164.399999142 358.699999213 c 0
 164.399999142 113.799999475 377.899998546 -18 625.69999826 -18 c 0
EndSplineSet
EndChar

StartChar: exclam
Encoding: 33 33 54
Width: 604
VWidth: 0
Flags: HW
LayerCount: 2
UndoRedoHistory
Layer: 1
Undoes
EndUndoes
Redoes
EndRedoes
EndUndoRedoHistory
Fore
SplineSet
308.199996948 -7.70000016689 m 0
 390.899996877 -7.70000016689 449.799995899 58.9999995232 449.799995899 133.999998808 c 0
 449.799995899 209.899998069 390.899996877 276.499997735 308.199996948 276.499997735 c 0
 224.899997115 276.499997735 165.799998045 209.899998069 165.799998045 133.999998808 c 0
 165.799998045 58.9999995232 224.899997115 -7.70000016689 308.199996948 -7.70000016689 c 0
261.899997592 414.399999142 m 1
 367.699995875 414.399999142 l 1
 423.599995613 1144.40000415 l 1
 423.599995613 1339.30000103 l 1
 199.299997926 1339.30000103 l 1
 199.299997926 1144.40000415 l 1
 261.899997592 414.399999142 l 1
EndSplineSet
EndChar

StartChar: f
Encoding: 102 102 55
Width: 744
VWidth: 0
Flags: HW
LayerCount: 2
UndoRedoHistory
Layer: 1
Undoes
EndUndoes
Redoes
EndRedoes
EndUndoRedoHistory
Fore
SplineSet
223.800001144 0 m 1
 465.599997759 0 l 1
 465.599997759 847.000001907 l 1
 702.499997735 847.000001907 l 1
 702.499997735 1012.99999928 l 1
 465.599997759 1012.99999928 l 1
 465.599997759 1066.79999995 l 2
 465.599997759 1202.50000203 515.999998093 1221.20000219 599.799998522 1221.20000219 c 0
 640.199998617 1221.20000219 690.499998927 1214.8000021 717.499998212 1210.30000222 c 1
 738.89999783 1384.49999964 l 1
 678.599999428 1396.19999933 616.699999452 1402.99999952 556.199999094 1402.99999952 c 0
 364.199999809 1402.99999952 223.800001144 1331.19999909 223.800001144 1047.50000036 c 2
 223.800001144 1011.82830814 l 1
 77.8999999762 995.199999332 l 1
 72.8999999762 847.000001907 l 1
 223.800001144 847.000001907 l 1
 223.800001144 0 l 1
EndSplineSet
EndChar

StartChar: five
Encoding: 53 53 56
Width: 1211
VWidth: 0
Flags: HW
LayerCount: 2
UndoRedoHistory
Layer: 1
Undoes
EndUndoes
Redoes
EndRedoes
EndUndoRedoHistory
Fore
SplineSet
581.69999826 -18.1000000238 m 0
 887.899996877 -18.1000000238 1069.69999802 161.499999166 1069.69999802 428.500000119 c 0
 1069.69999802 676.199999332 899.299998879 853.499999642 640.69999826 853.499999642 c 0
 584.299997211 853.499999642 514.999996901 821.799999952 460.799995899 794.999999046 c 1
 462.599995852 851.699997544 484.299996257 1099.40000439 486.099996209 1142.60000324 c 1
 1002.29999793 1142.60000324 l 1
 1018.59999776 1337.80000043 l 1
 262.999999762 1337.80000043 l 1
 224.999999523 596.600001574 l 1
 400.799997568 569.60000205 l 1
 460.499997497 633.400002003 534.799998283 663.600002289 605.399999142 663.600002289 c 0
 735.600001812 663.600002289 820.700001597 571.800000668 820.700001597 429.799999952 c 0
 820.700001597 281.999997616 734.199999332 177.299997211 557.199998617 177.299997211 c 0
 410.899999738 177.299997211 277.200000286 263.29999578 253.399998188 279.599997044 c 1
 169.499999404 107.599999428 l 1
 200.800001621 83.4999982119 383.100000262 -18.1000000238 581.69999826 -18.1000000238 c 0
EndSplineSet
EndChar

StartChar: four
Encoding: 52 52 57
Width: 1233
VWidth: 0
Flags: HW
LayerCount: 2
UndoRedoHistory
Layer: 1
Undoes
EndUndoes
Redoes
EndRedoes
EndUndoRedoHistory
Fore
SplineSet
379.999995947 489.999999046 m 1
 725.400000811 1069.20000339 l 1
 725.400000811 489.999999046 l 1
 379.999995947 489.999999046 l 1
725.500000834 0 m 1
 964.499997258 0 l 1
 964.499997258 303.000001669 l 1
 1112.89999759 303.000001669 l 1
 1126.4999975 493.399998903 l 1
 964.499997258 493.399998903 l 1
 964.499997258 1337.80000043 l 1
 676.100002408 1337.80000043 l 1
 135.799999475 473.700000167 l 1
 135.799999475 303.000001669 l 1
 725.500000834 303.000001669 l 1
 725.500000834 0 l 1
EndSplineSet
EndChar

StartChar: g
Encoding: 103 103 58
Width: 1154
VWidth: 0
Flags: HW
HStem: -398 94 0 87 918 86
VStem: 120 114 913 117 913 34
LayerCount: 2
UndoRedoHistory
Layer: 1
Undoes
EndUndoes
Redoes
EndRedoes
EndUndoRedoHistory
Fore
SplineSet
452.700001121 -477.099998355 m 0
 823.60000205 -477.099998355 1027.30000007 -256.099998116 1027.30000007 109.699999452 c 2
 1027.30000007 1012.99999928 l 1
 812.300002933 1012.99999928 l 1
 801.190575974 900.572596923 l 1
 739.781475192 999.511061297 640.4105537 1037.29999912 522.400001526 1037.29999912 c 0
 276.099998832 1037.29999912 70.5000013113 841.699997067 70.5000013113 515.199999094 c 0
 70.5000013113 219.000001431 247.499999881 0 513.800001383 0 c 0
 626.03668324 0 728.941003486 28.9361879831 792.700003266 129.122278998 c 1
 792.700003266 17.9000018835 l 2
 792.700003266 -161.100000739 671.000003576 -286.500001073 449.700000882 -286.500001073 c 0
 443.400000572 -286.500001073 410.09849163 -286.616542279 216.000001907 -281.300001025 c 1
 216.000001907 -471.899998307 l 1
 436.49834443 -477.244455773 445.100000978 -477.099998355 452.700001121 -477.099998355 c 0
556.500000358 184.199997425 m 0
 377.49999845 184.199997425 312.299997926 332.299999833 312.299997926 522.399999142 c 0
 312.299997926 712.09999907 389.999998093 850.500001788 564.900000215 850.500001788 c 0
 731.600002527 850.500001788 795.400003195 734.500000358 795.400003195 537.200000286 c 2
 795.400003195 501.199998379 l 1
 793.600003242 317.399998665 734.200002193 184.199997425 556.500000358 184.199997425 c 0
EndSplineSet
EndChar

StartChar: grave
Encoding: 96 96 59
Width: 471
VWidth: 0
Flags: HW
LayerCount: 2
UndoRedoHistory
Layer: 1
Undoes
EndUndoes
Redoes
EndRedoes
EndUndoRedoHistory
Fore
SplineSet
305.000003338 1090.50000226 m 1
 459.000000715 1090.50000226 l 1
 283.600001097 1450.10000193 l 1
 -2.99999594688 1450.10000193 l 1
 305.000003338 1090.50000226 l 1
EndSplineSet
EndChar

StartChar: greater
Encoding: 62 62 60
Width: 1108
VWidth: 0
Flags: HW
LayerCount: 2
UndoRedoHistory
Layer: 1
Undoes
EndUndoes
Redoes
EndRedoes
EndUndoRedoHistory
Fore
SplineSet
136.100000024 165.499998689 m 1
 1009.30000007 581.699998498 l 1
 1009.30000007 697.199997187 l 1
 136.400000095 1147.0999974 l 1
 136.400000095 952.499999881 l 1
 757.600004196 644.89999783 l 1
 136.100000024 368.899995923 l 1
 136.100000024 165.499998689 l 1
EndSplineSet
EndChar

StartChar: guillemotleft
Encoding: 171 171 61
Width: 946
VWidth: 0
Flags: HW
LayerCount: 2
UndoRedoHistory
Layer: 1
Undoes
EndUndoes
Redoes
EndRedoes
EndUndoRedoHistory
Fore
SplineSet
713.899999738 122.700000644 m 1
 898.199996233 172.199999809 l 1
 655.499996781 517.69999969 l 1
 901.999996185 863.499999404 l 1
 715.899999738 912.199998617 l 1
 425.800000429 516 l 1
 713.899999738 122.700000644 l 1
347.200000763 122.700000644 m 1
 534.499997735 172.199999809 l 1
 289.699997783 517.69999969 l 1
 537.89999783 863.499999404 l 1
 350.200000763 912.199998617 l 1
 74.9000011683 541.899998784 l 1
 69.0000023842 498.899998784 l 1
 347.200000763 122.700000644 l 1
EndSplineSet
EndChar

StartChar: h
Encoding: 104 104 62
Width: 1137
VWidth: 0
Flags: HW
HStem: 918 86
VStem: 180 114 850 114
LayerCount: 2
UndoRedoHistory
Layer: 1
Undoes
EndUndoes
Redoes
EndRedoes
EndUndoRedoHistory
Fore
SplineSet
133.20000124 0 m 1
 372.299997926 0 l 1
 372.299997926 498.600001812 l 2
 372.299997926 701.60000062 415.899998546 851.400001764 612.000000238 851.400001764 c 0
 732.300001502 851.400001764 772.60000205 778.700000882 772.60000205 616.799999714 c 2
 772.60000205 0 l 1
 1014.39999866 0 l 1
 1014.39999866 637.399999142 l 2
 1014.39999866 911.299998403 878.599999428 1037.29999912 663.999999285 1037.29999912 c 0
 547.043715628 1037.29999912 441.280878118 989.774754598 368.469479302 913.614158743 c 1
 374.999997854 1094.69999826 l 1
 374.999997854 1370.40000057 l 1
 133.20000124 1355.00000072 l 1
 133.20000124 0 l 1
EndSplineSet
EndChar

StartChar: hyphen
Encoding: 45 45 63
Width: 606
VWidth: 0
Flags: HW
LayerCount: 2
UndoRedoHistory
Layer: 1
Undoes
EndUndoes
Redoes
EndRedoes
EndUndoRedoHistory
Fore
SplineSet
65.1000019312 413.600001812 m 1
 553.900000215 413.600001812 l 1
 553.900000215 602.699999213 l 1
 65.1000019312 602.699999213 l 1
 65.1000019312 413.600001812 l 1
EndSplineSet
EndChar

StartChar: i
Encoding: 105 105 64
Width: 515
VWidth: 0
Flags: HW
LayerCount: 2
UndoRedoHistory
Layer: 1
Undoes
EndUndoes
Redoes
EndRedoes
EndUndoRedoHistory
Fore
SplineSet
141.300001025 1162.20000124 m 1
 383.09999764 1162.20000124 l 1
 383.09999764 1352.20000005 l 1
 141.300001025 1352.20000005 l 1
 141.300001025 1162.20000124 l 1
141.300001025 0 m 1
 383.09999764 0 l 1
 383.09999764 1012.99999928 l 1
 141.300001025 1012.99999928 l 1
 141.300001025 0 l 1
EndSplineSet
EndChar

StartChar: j
Encoding: 106 106 65
Width: 555
VWidth: 0
Flags: HW
LayerCount: 2
UndoRedoHistory
Layer: 1
Undoes
EndUndoes
Redoes
EndRedoes
EndUndoRedoHistory
Fore
SplineSet
186.200000763 1162.20000124 m 1
 425.499997497 1162.20000124 l 1
 425.499997497 1352.20000005 l 1
 186.200000763 1352.20000005 l 1
 186.200000763 1162.20000124 l 1
1.10000121593 -382.200000763 m 1
 59.0000007153 -382.200000763 l 2
 364.699997783 -382.200000763 425.499997497 -251.900002837 425.499997497 22.0999957323 c 2
 425.499997497 1013.89999926 l 1
 186.200000763 1013.89999926 l 1
 186.200000763 -12.0000019073 l 2
 186.200000763 -161.100002885 174.400001049 -198.600002766 33.2000010014 -198.600002766 c 2
 -26.2999984026 -198.600002766 l 1
 1.10000121593 -382.200000763 l 1
EndSplineSet
EndChar

StartChar: k
Encoding: 107 107 66
Width: 1090
VWidth: 0
Flags: HW
LayerCount: 2
UndoRedoHistory
Layer: 1
Undoes
EndUndoes
Redoes
EndRedoes
EndUndoRedoHistory
Fore
SplineSet
133.20000124 0 m 1
 374.999997854 0 l 1
 374.999997854 351.555827673 l 1
 464.181922146 435.991507876 l 1
 793.400001526 0 l 1
 1077.4999975 0 l 1
 657.579140724 551.831267345 l 1
 1055.29999793 1012.99999928 l 1
 751.300002456 1012.99999928 l 1
 369.468979953 569.716645913 l 1
 374.999997854 772.199996948 l 1
 374.999997854 1370.40000057 l 1
 133.20000124 1355.00000072 l 1
 133.20000124 0 l 1
EndSplineSet
EndChar

StartChar: l
Encoding: 108 108 67
Width: 667
VWidth: 0
Flags: HW
HStem: -10 81
VStem: 180 114
LayerCount: 2
UndoRedoHistory
Layer: 1
Undoes
EndUndoes
Redoes
EndRedoes
EndUndoRedoHistory
Fore
SplineSet
505.799998045 -12.6999999285 m 0
 579.699997783 -12.6999999285 644.999997377 4.19999980927 653.299997687 7.19999980927 c 1
 653.299997687 176.999997377 l 1
 633.499997973 175.099997401 575.19999814 167.299997449 543.799997568 167.299997449 c 0
 454.899996638 167.299997449 376.799997807 191.099998116 376.799997807 375.399996281 c 2
 376.799997807 1370.40000057 l 1
 135.000001192 1355.00000072 l 1
 135.000001192 385.099996209 l 2
 135.000001192 114.399997711 244.30000174 -12.6999999285 505.799998045 -12.6999999285 c 0
EndSplineSet
EndChar

StartChar: less
Encoding: 60 60 68
Width: 1107
VWidth: 0
Flags: HW
LayerCount: 2
UndoRedoHistory
Layer: 1
Undoes
EndUndoes
Redoes
EndRedoes
EndUndoRedoHistory
Fore
SplineSet
969.900000215 162.999998569 m 1
 969.900000215 162.999998569 969.100000262 365.399995804 968.200000286 366.29999578 c 2
 347.499996066 644.89999783 l 1
 970.200000286 950.69999969 l 1
 970.200000286 1145.39999723 l 1
 97.1000002623 698.199997187 l 1
 97.1000002623 581.899998546 l 1
 969.900000215 162.999998569 l 1
EndSplineSet
EndChar

StartChar: logicalnot
Encoding: 172 172 69
Width: 1128
VWidth: 0
Flags: HW
LayerCount: 2
UndoRedoHistory
Layer: 1
Undoes
EndUndoes
Redoes
EndRedoes
EndUndoRedoHistory
Fore
SplineSet
848.700001836 230.30000031 m 1
 1026.99999905 230.30000031 l 1
 1026.99999905 767.699999213 l 1
 110.899999738 767.699999213 l 1
 110.899999738 586.600001574 l 1
 848.700001836 586.600001574 l 1
 848.700001836 230.30000031 l 1
EndSplineSet
EndChar

StartChar: m
Encoding: 109 109 70
Width: 1694
VWidth: 0
Flags: HW
HStem: 918 86
VStem: 180 114 180 92 790 114 1386 114
LayerCount: 2
UndoRedoHistory
Layer: 1
Undoes
EndUndoes
Redoes
EndRedoes
EndUndoRedoHistory
Fore
SplineSet
133.20000124 0 m 1
 374.999997854 0 l 1
 374.999997854 509.900003791 l 1
 378.499998689 704.800002575 410.200000763 851.400001764 590.799999952 851.400001764 c 0
 711.500000834 851.400001764 734.200001478 759.500001311 734.200001478 585.499998927 c 2
 734.200001478 0 l 1
 975.999998093 0 l 1
 975.999998093 583.899997115 l 1
 981.120578565 635.771906757 988.275550578 680.130801969 1001.01419469 715.566687668 c 0
 1029.37691502 800.370929691 1086.07069771 851.400001764 1182.80000043 851.400001764 c 0
 1306.9000026 851.400001764 1329.3000015 755.199998379 1329.3000015 577.199999571 c 2
 1329.3000015 0 l 1
 1571.09999812 0 l 1
 1571.09999812 645.299999833 l 2
 1571.09999812 895.199999571 1467.89999831 1037.29999912 1237.79999924 1037.29999912 c 0
 1118.56307637 1037.29999912 1012.31679029 986.797941607 934.831129377 882.761137866 c 1
 877.691894311 984.718007229 797.964384832 1037.29999912 658.69999826 1037.29999912 c 0
 515.330787716 1037.29999912 416.266680261 976.931826765 352.373820409 898.873556075 c 1
 329.599998474 1012.99999928 l 1
 133.20000124 1012.99999928 l 1
 133.20000124 0 l 1
EndSplineSet
EndChar

StartChar: macron
Encoding: 175 175 71
Width: 829
VWidth: 0
Flags: HW
LayerCount: 2
UndoRedoHistory
Layer: 1
Undoes
EndUndoes
Redoes
EndRedoes
EndUndoRedoHistory
Fore
SplineSet
107.600004435 1234.69999897 m 1
 742.500001073 1234.69999897 l 1
 742.500001073 1387.0999974 l 1
 107.600004435 1387.0999974 l 1
 107.600004435 1234.69999897 l 1
EndSplineSet
EndChar

StartChar: n
Encoding: 110 110 72
Width: 1170
VWidth: 0
Flags: HW
HStem: 0 21<133.2 375 375 375 805.3 1047.1 1047.1 1047.1> 918 86 966 20
VStem: 180 114 844 114
LayerCount: 2
UndoRedoHistory
Layer: 1
Undoes
EndUndoes
Redoes
EndRedoes
EndUndoRedoHistory
Fore
SplineSet
133.20000124 0 m 1
 374.999997854 0 l 1
 374.999997854 504.300001979 l 2
 374.999997854 712.600000858 440.199997902 851.400001764 641.699999452 851.400001764 c 0
 772.500000596 851.400001764 804.500001073 765.500001073 805.300001025 613.800000429 c 2
 805.300001025 0 l 1
 1047.09999764 0 l 1
 1047.09999764 635.399998903 l 2
 1047.09999764 889.199999571 935.39999795 1037.29999912 701.299998164 1037.29999912 c 0
 549.022524973 1037.29999912 437.291060159 979.853776662 355.233411802 887.076358578 c 1
 330.899998784 1012.99999928 l 1
 133.20000124 1012.99999928 l 1
 133.20000124 0 l 1
EndSplineSet
EndChar

StartChar: nine
Encoding: 57 57 73
Width: 1210
VWidth: 0
Flags: HW
LayerCount: 2
UndoRedoHistory
Layer: 1
Undoes
EndUndoes
Redoes
EndRedoes
EndUndoRedoHistory
Fore
SplineSet
616.399998903 678.099999309 m 0
 452.099998116 678.099999309 373.899997115 777.500000119 373.899997115 927.300000787 c 0
 373.899997115 1071.00000143 463.299997687 1172.20000291 620.799998999 1172.20000291 c 0
 774.900000453 1172.20000291 853.600001097 1074.10000145 853.600001097 931.600000858 c 0
 853.600001097 775.399998188 774.499997497 678.099999309 616.399998903 678.099999309 c 0
262.600001335 0 m 1
 557.299996972 0 l 1
 557.299996972 0 902.199996233 464.399998903 921.099995732 489.599998236 c 0
 1015.29999697 619.499999881 1097.89999735 744 1097.89999735 919.800000906 c 0
 1097.89999735 1181.59999943 898.09999907 1358.50000036 609.799999237 1358.50000036 c 0
 332.099999547 1358.50000036 126.800000906 1183.69999993 126.800000906 921.90000093 c 0
 126.800000906 670.100001216 319.000000954 502.400001526 569.599999666 502.400001526 c 0
 599.175657226 502.400001526 631.340607429 509.6720594 661.7718277 519.83463403 c 1
 631.395214512 480.674057529 602.84851768 443.789809024 597.500002027 436.600001097 c 2
 262.600001335 0 l 1
EndSplineSet
EndChar

StartChar: numbersign
Encoding: 35 35 74
Width: 1201
VWidth: 0
Flags: HW
LayerCount: 2
UndoRedoHistory
Layer: 1
Undoes
EndUndoes
Redoes
EndRedoes
EndUndoRedoHistory
Fore
SplineSet
523.099996448 537.199997663 m 1
 577.099997401 815.300001502 l 1
 736.700000167 815.300001502 l 1
 684.499999166 537.199997663 l 1
 523.099996448 537.199997663 l 1
247.599999666 -14.3000003099 m 1
 422.499996781 -14.3000003099 l 1
 492.899996877 369.700000167 l 1
 650.799999714 369.700000167 l 1
 580.599999428 -14.3000003099 l 1
 762.099997163 -14.3000003099 l 1
 834.499997497 369.700000167 l 1
 1018.39999533 369.700000167 l 1
 1027.39999533 537.199997663 l 1
 861.199996948 537.199997663 l 1
 912.299997449 815.300001502 l 1
 1086.6999954 815.300001502 l 1
 1098.6999954 984.999998808 l 1
 943.999996901 984.999998808 l 1
 1008.99999666 1334.99999976 l 1
 833.399999619 1334.99999976 l 1
 768.599999666 984.999998808 l 1
 609.199996948 984.999998808 l 1
 676.299997211 1334.99999976 l 1
 494.39999938 1334.99999976 l 1
 423.299999118 984.999998808 l 1
 218.500000596 984.999998808 l 1
 211.300000548 814.300001502 l 1
 392.899999499 814.300001502 l 1
 346.199999094 537.199997663 l 1
 149.500000596 537.199997663 l 1
 140.500000596 369.700000167 l 1
 314.599999666 369.700000167 l 1
 247.599999666 -14.3000003099 l 1
EndSplineSet
EndChar

StartChar: o
Encoding: 111 111 75
Width: 1166
VWidth: 0
Flags: HW
HStem: -18 86 918 86
VStem: 120 112 918 112
LayerCount: 2
UndoRedoHistory
Layer: 1
Undoes
EndUndoes
Redoes
EndRedoes
EndUndoRedoHistory
Fore
SplineSet
583.099999785 -18 m 0
 887.099998832 -18 1078.59999871 186.800000429 1078.59999871 509.799999475 c 0
 1078.59999871 830.499998927 879.69999969 1037.29999912 583.099999785 1037.29999912 c 0
 277.400000334 1037.29999912 87.6000008583 837.199998617 87.6000008583 509.799999475 c 0
 87.6000008583 191.000000238 289.100000024 -18 583.099999785 -18 c 0
583.099999785 166.999997377 m 0
 424.099997878 166.999997377 329.199997425 287.799999237 329.199997425 509.599999428 c 0
 329.199997425 729.599999905 425.89999783 851.400001764 583.099999785 851.400001764 c 0
 742.700001836 851.400001764 837.000002146 729.499999881 837.000002146 509.499999404 c 0
 837.000002146 285.999999285 742.100001931 166.999997377 583.099999785 166.999997377 c 0
EndSplineSet
EndChar

StartChar: one
Encoding: 49 49 76
Width: 1117
VWidth: 0
Flags: HW
LayerCount: 2
UndoRedoHistory
Layer: 1
Undoes
EndUndoes
Redoes
EndRedoes
EndUndoRedoHistory
Fore
SplineSet
195.699999928 0 m 1
 991.999998808 0 l 1
 991.999998808 188.79999733 l 1
 731.199997902 188.79999733 l 1
 731.199997902 1337.80000043 l 1
 521.100000501 1337.80000043 l 1
 444.100000739 1282.60000062 310.999999523 1234.30000055 199.500000834 1204.6000011 c 1
 199.500000834 1014.40000367 l 1
 305.462568193 1030.89908817 418.673897251 1069.40104558 489.400001287 1111.61527814 c 1
 489.400001287 188.79999733 l 1
 195.699999928 188.79999733 l 1
 195.699999928 0 l 1
EndSplineSet
EndChar

StartChar: ordfeminine
Encoding: 170 170 77
Width: 679
VWidth: 0
Flags: HW
LayerCount: 2
UndoRedoHistory
Layer: 1
Undoes
EndUndoes
Redoes
EndRedoes
EndUndoRedoHistory
Fore
SplineSet
296.300002456 819.600001574 m 0
 360.600004673 819.600001574 416.400004148 863.70000422 453.500002503 934.50000608 c 1
 453.500002503 1011.1000036 l 1
 317.400003672 993.300003886 221.60000062 978.200004816 221.60000062 894.800002813 c 0
 221.60000062 841.80000186 253.400001287 819.600001574 296.300002456 819.600001574 c 0
100.50000155 501.300003648 m 1
 100.50000155 621.40000248 l 1
 615.500000596 621.40000248 l 1
 615.500000596 501.300003648 l 1
 100.50000155 501.300003648 l 1
279.300002456 696.900002599 m 0
 166.600002289 696.900002599 71.6000027657 766.800003052 71.6000027657 896.800002813 c 0
 71.6000027657 1087.60000205 281.200000286 1106.40000248 453.500002503 1123.80000234 c 1
 453.500002503 1143.10000217 l 1
 452.200002432 1234.10000288 423.700002551 1264.90000355 350.400001764 1264.90000355 c 0
 291.800001383 1264.90000355 220.400001764 1252.40000391 136.20000267 1210.00000238 c 1
 88.6000022888 1317.70000064 l 1
 169.800001621 1369.10000241 268.400001049 1394.40000248 363.600001335 1394.40000248 c 0
 495.60000062 1394.40000248 609.200000048 1334.10000217 609.200000048 1165.00000215 c 2
 608.799999952 826.400003195 l 2
 608.799999952 821.900002837 610.499999881 723.900006175 611.400000095 710.100002885 c 1
 478.000001431 710.100002885 l 1
 466.700001836 775.400003195 l 1
 425.800002098 728.800002813 349.400002956 696.900002599 279.300002456 696.900002599 c 0
EndSplineSet
EndChar

StartChar: p
Encoding: 112 112 78
Width: 1159
VWidth: 0
Flags: HW
HStem: -18 86 918 86
VStem: 180 114 180 91 943 114
LayerCount: 2
UndoRedoHistory
Layer: 1
Undoes
EndUndoes
Redoes
EndRedoes
EndUndoRedoHistory
Fore
SplineSet
608.600000381 167.899997354 m 0
 458.199998856 167.899997354 375.599997759 273.499999166 375.599997759 527.499999404 c 1
 377.399997711 753.099999547 459.19999814 851.400001764 606.200000763 851.400001764 c 0
 743.700003266 851.400001764 829.600003004 743.799999475 829.600003004 512.299999356 c 0
 829.600003004 285.899998784 744.800002813 167.899997354 608.600000381 167.899997354 c 0
135.900001168 -412.100000978 m 1
 377.699997783 -399.600001097 l 1
 377.699997783 -21.6000015736 l 1
 373.918061507 103.71961422 l 1
 430.95051278 42.7287866963 524.878177913 -18 653.199999571 -18 c 0
 913.999999762 -18 1071.39999962 205.099999547 1071.39999962 510.299999356 c 0
 1071.39999962 805.399999857 923.199999809 1037.29999912 671.299998879 1037.29999912 c 0
 560.404735472 1037.29999912 446.971619723 993.401991029 364.857263601 897.766693425 c 1
 343.899998069 1012.99999928 l 1
 135.900001168 1012.99999928 l 1
 135.900001168 -412.100000978 l 1
EndSplineSet
EndChar

StartChar: paragraph
Encoding: 182 182 79
Width: 1052
VWidth: 0
Flags: HW
LayerCount: 2
UndoRedoHistory
Layer: 1
Undoes
EndUndoes
Redoes
EndRedoes
EndUndoRedoHistory
Fore
SplineSet
380.300003171 -135.700000405 m 1
 555.400000095 -135.700000405 l 1
 555.400000095 1206.70000446 l 1
 692.500003219 1206.70000446 l 1
 692.500003219 -135.700000405 l 1
 849.500000596 -135.700000405 l 1
 849.500000596 1206.70000446 l 1
 921.600000381 1206.70000446 l 1
 921.600000381 1370.10000241 l 1
 534.699998498 1370.10000241 l 2
 266.299997211 1370.10000241 69.8000013828 1273.79999948 69.8000013828 1047.10000265 c 0
 69.8000013828 874.100003123 195.600002289 732.500002027 380.300003171 715.900002599 c 1
 380.300003171 -135.700000405 l 1
EndSplineSet
EndChar

StartChar: parenleft
Encoding: 40 40 80
Width: 708
VWidth: 0
Flags: HW
LayerCount: 2
UndoRedoHistory
Layer: 1
Undoes
EndUndoes
Redoes
EndRedoes
EndUndoRedoHistory
Fore
SplineSet
420.199998617 -150.700002551 m 1
 639.799995661 -150.700002551 l 1
 496.899994493 88.5999987125 393.399996042 342.500000358 393.399996042 638.800000429 c 0
 393.399996042 950.199999332 527.899993539 1264.69999731 640.799995661 1430.70000088 c 1
 419.099998593 1430.70000088 l 1
 276.19999814 1236.69999969 164.999999046 953.099999785 164.999999046 636.500000358 c 0
 164.999999046 318.399999857 267.099998593 65.0999974012 420.199998617 -150.700002551 c 1
EndSplineSet
EndChar

StartChar: parenright
Encoding: 41 41 81
Width: 720
VWidth: 0
Flags: HW
LayerCount: 2
UndoRedoHistory
Layer: 1
Undoes
EndUndoes
Redoes
EndRedoes
EndUndoRedoHistory
Fore
SplineSet
92.2000010014 -150.700002551 m 1
 313.599997997 -150.700002551 l 1
 455.899998307 40.799998045 567.899997592 330.999999523 567.899997592 651.799999952 c 0
 567.899997592 965.699999452 466.599998236 1212.40000033 312.899998069 1430.70000088 c 1
 93.0000009537 1430.70000088 l 1
 236.500002265 1189.99999928 339.500000596 943.899999499 339.500000596 650.500000119 c 0
 339.500000596 336.200000525 204.50000298 13.9000006914 92.2000010014 -150.700002551 c 1
EndSplineSet
EndChar

StartChar: percent
Encoding: 37 37 82
Width: 1733
VWidth: 0
Flags: HW
LayerCount: 2
UndoRedoHistory
Layer: 1
Undoes
EndUndoes
Redoes
EndRedoes
EndUndoRedoHistory
Fore
SplineSet
368.900001168 0 m 1
 1154.00000095 1352.20000005 l 1
 1347.89999831 1352.20000005 l 1
 570.899998546 0 l 1
 368.900001168 0 l 1
388.200000048 664.799999952 m 0
 171.000000238 664.799999952 56.4000005722 817.799999952 56.4000005722 1014.79999995 c 0
 56.4000005722 1212.79999995 174.000000238 1364.79999995 388.200000048 1364.79999995 c 0
 606.399999857 1364.79999995 720.999999523 1215.79999995 720.999999523 1014.79999995 c 0
 720.999999523 817.799999952 603.399999857 664.799999952 388.200000048 664.799999952 c 0
388.400000095 785.399998665 m 0
 517.300000787 785.399998665 572.500001073 887.599999189 572.500001073 1016.69999993 c 0
 572.500001073 1150.00000072 516.300000787 1245.10000122 388.400000095 1245.10000122 c 0
 259.39999938 1245.10000122 202.199999094 1144.90000069 202.199999094 1016.69999993 c 0
 202.199999094 884.399999142 259.499999404 785.399998665 388.400000095 785.399998665 c 0
1344.49999893 107.699998736 m 0
 1473.39999962 107.699998736 1528.5999999 209.899999261 1528.5999999 339 c 0
 1528.5999999 472.300000787 1472.39999962 567.400001287 1344.49999893 567.400001287 c 0
 1215.49999821 567.400001287 1158.29999793 467.200000763 1158.29999793 339 c 0
 1158.29999793 206.699999213 1215.59999824 107.699998736 1344.49999893 107.699998736 c 0
1344.29999888 -12.8999999762 m 0
 1127.09999907 -12.8999999762 1012.4999994 140.100000024 1012.4999994 337.100000024 c 0
 1012.4999994 535.100000024 1130.09999907 687.100000024 1344.29999888 687.100000024 c 0
 1562.49999869 687.100000024 1677.09999835 538.100000024 1677.09999835 337.100000024 c 0
 1677.09999835 140.100000024 1559.49999869 -12.8999999762 1344.29999888 -12.8999999762 c 0
EndSplineSet
EndChar

StartChar: period
Encoding: 46 46 83
Width: 537
VWidth: 0
Flags: HW
LayerCount: 2
UndoRedoHistory
Layer: 1
Undoes
EndUndoes
Redoes
EndRedoes
EndUndoRedoHistory
Fore
SplineSet
274.49999845 0.699999451637 m 0
 357.099998355 0.699999451637 416.099997401 66.4999991655 416.099997401 141.49999845 c 0
 416.099997401 217.399997711 357.099998355 284.099997401 274.49999845 284.099997401 c 0
 190.999998569 284.099997401 131.199999571 217.399997711 131.199999571 141.49999845 c 0
 131.199999571 65.6999992132 191.999998569 0.699999451637 274.49999845 0.699999451637 c 0
EndSplineSet
EndChar

StartChar: periodcentered
Encoding: 183 183 84
Width: 372
VWidth: 0
Flags: HW
LayerCount: 2
UndoRedoHistory
Layer: 1
Undoes
EndUndoes
Redoes
EndRedoes
EndUndoRedoHistory
Fore
SplineSet
107 511 m 1
 107 691 l 1
 260 691 l 1
 260 511 l 1
 107 511 l 1
EndSplineSet
EndChar

StartChar: plus
Encoding: 43 43 85
Width: 1037
VWidth: 0
Flags: HW
LayerCount: 2
UndoRedoHistory
Layer: 1
Undoes
EndUndoes
Redoes
EndRedoes
EndUndoRedoHistory
Fore
SplineSet
435.200001478 134.500001073 m 1
 617.499998927 134.500001073 l 1
 617.499998927 507.000001192 l 1
 976.999998569 507.000001192 l 1
 976.999998569 685.099998355 l 1
 618.399998903 685.099998355 l 1
 618.399998903 1057.69999826 l 1
 436.100001454 1057.69999826 l 1
 436.100001454 685.099998355 l 1
 74.8000016212 685.099998355 l 1
 74.8000016212 507.000001192 l 1
 435.200001478 507.000001192 l 1
 435.200001478 134.500001073 l 1
EndSplineSet
EndChar

StartChar: plusminus
Encoding: 177 177 86
Width: 1126
VWidth: 0
Flags: HW
LayerCount: 2
UndoRedoHistory
Layer: 1
Undoes
EndUndoes
Redoes
EndRedoes
EndUndoRedoHistory
Fore
SplineSet
478.30000031 234.399998426 m 1
 661.499997735 234.399998426 l 1
 661.499997735 572.699999452 l 1
 997.599997997 572.699999452 l 1
 997.599997997 759.799996376 l 1
 660.599997759 759.799996376 l 1
 660.599997759 1090.0999974 l 1
 478.30000031 1090.0999974 l 1
 478.30000031 759.799996376 l 1
 141.299999833 759.799996376 l 1
 141.299999833 572.699999452 l 1
 478.30000031 572.699999452 l 1
 478.30000031 234.399998426 l 1
138.399999142 0 m 1
 138.399999142 167.199997663 l 1
 1003.69999945 167.199997663 l 1
 1003.69999945 0 l 1
 138.399999142 0 l 1
EndSplineSet
EndChar

StartChar: q
Encoding: 113 113 87
Width: 1160
VWidth: 0
Flags: HW
LayerCount: 2
UndoRedoHistory
Layer: 1
Undoes
EndUndoes
Redoes
EndRedoes
EndUndoRedoHistory
Fore
SplineSet
558.900000453 166.099997401 m 0
 415.699998021 166.099997401 329.199997425 279.399999142 329.199997425 509.199999571 c 0
 329.199997425 742.299999595 417.599997759 850.500001788 556.400000572 850.500001788 c 0
 712.100003123 850.500001788 793.900003314 746 793.900003314 498.500000834 c 1
 791.500003457 261.999999762 711.200003624 166.099997401 558.900000453 166.099997401 c 0
785.700003743 -412.100000978 m 1
 1027.30000031 -398.000001192 l 1
 1027.30000031 1012.99999928 l 1
 814.200003147 1012.99999928 l 1
 799.354718704 903.410418443 l 1
 744.07245091 974.291870668 657.950684447 1037.29999912 512.900001407 1037.29999912 c 0
 239.700001121 1037.29999912 87.6000008583 814.199999332 87.6000008583 509.799999237 c 0
 87.6000008583 200.999999762 256.800001144 -18 516.000001192 -18 c 0
 634.750829677 -18 722.432279094 27.1970441466 788.706102592 104.534708576 c 1
 785.700003743 4.19999718666 l 1
 785.700003743 -412.100000978 l 1
EndSplineSet
EndChar

StartChar: question
Encoding: 63 63 88
Width: 957
VWidth: 0
Flags: HW
LayerCount: 2
UndoRedoHistory
Layer: 1
Undoes
EndUndoes
Redoes
EndRedoes
EndUndoRedoHistory
Fore
SplineSet
449.699998021 -7.70000016689 m 0
 529.899998069 -7.70000016689 586.399997234 58.9999995232 586.399997234 133.999998808 c 0
 586.399997234 209.899998069 529.899998069 276.499997735 449.699998021 276.499997735 c 0
 367.999998093 276.499997735 307.199999094 209.899998069 307.199999094 133.999998808 c 0
 307.199999094 58.1999995708 368.899998069 -7.70000016689 449.699998021 -7.70000016689 c 0
501.399996758 418.499998927 m 1
 634.899996877 692.700000405 836.799996376 832.300000548 836.799996376 1057.00000167 c 0
 836.799996376 1267.70000064 656.999998569 1367.00000095 489.899997354 1367.00000095 c 0
 351.799999237 1367.00000095 248.599998474 1333.10000145 159.999998808 1272.30000126 c 1
 226.59999752 1115.10000288 l 1
 277.199997187 1146.30000269 351.799997568 1188.90000284 465.699997306 1188.90000284 c 0
 575.199997902 1188.90000284 640.699998736 1129.80000329 641.79999876 1029.00000238 c 1
 641.79999876 867.50000155 422.399996758 674.699996829 395.19999814 423.499998689 c 1
 501.399996758 418.499998927 l 1
EndSplineSet
EndChar

StartChar: quotedbl
Encoding: 34 34 89
Width: 740
VWidth: 0
Flags: HW
LayerCount: 2
UndoRedoHistory
Layer: 1
Undoes
EndUndoes
Redoes
EndRedoes
EndUndoRedoHistory
Fore
SplineSet
499.799996138 850.500003219 m 1
 648.699993253 850.500003219 l 1
 676.299993157 1341.60000134 l 1
 469.899996638 1341.60000134 l 1
 499.799996138 850.500003219 l 1
137.099999785 850.900003314 m 1
 285.799996853 850.900003314 l 1
 313.699996829 1341.60000134 l 1
 107.200000286 1341.60000134 l 1
 137.099999785 850.900003314 l 1
EndSplineSet
EndChar

StartChar: quotesingle
Encoding: 39 39 90
Width: 487
VWidth: 0
Flags: HW
LayerCount: 2
UndoRedoHistory
Layer: 1
Undoes
EndUndoes
Redoes
EndRedoes
EndUndoRedoHistory
Fore
SplineSet
174.399997711 842.000002146 m 1
 318.899995685 842.000002146 l 1
 342.699995399 1342.80000043 l 1
 144.599998236 1342.80000043 l 1
 174.399997711 842.000002146 l 1
EndSplineSet
EndChar

StartChar: r
Encoding: 114 114 91
Width: 782
VWidth: 0
Flags: HW
HStem: 910 88
VStem: 180 114 180 86
LayerCount: 2
UndoRedoHistory
Layer: 1
Undoes
EndUndoes
Redoes
EndRedoes
EndUndoRedoHistory
Fore
SplineSet
135.000001192 0 m 1
 376.799997807 0 l 1
 376.799997807 552.700000405 l 2
 376.799997807 711.100000978 483.099998593 817.300002456 655.399998665 817.300002456 c 0
 680.699998498 817.300002456 705.599998474 815.300002456 737.299998164 809.40000248 c 1
 741.69999826 1012.79999948 l 1
 715.399998426 1018.4999994 693.69999826 1018.69999945 669.999998093 1018.69999945 c 0
 568.108428529 1018.69999945 453.115811977 968.491516682 363.718315195 857.116898407 c 1
 337.999998093 1012.99999928 l 1
 135.000001192 1012.99999928 l 1
 135.000001192 0 l 1
EndSplineSet
EndChar

StartChar: registered
Encoding: 174 174 92
Width: 1551
VWidth: 0
Flags: HW
LayerCount: 2
UndoRedoHistory
Layer: 1
Undoes
EndUndoes
Redoes
EndRedoes
EndUndoRedoHistory
Fore
SplineSet
781.600002766 -3.70000088215 m 0
 1157.00000238 -3.70000088215 1485.50000393 276.199997902 1485.50000393 689.900000453 c 0
 1485.50000393 1102.70000303 1156.10000241 1384.50000179 780.700002789 1384.50000179 c 0
 407.100003123 1384.50000179 79.0000016689 1103.600003 79.0000016689 689.900000453 c 0
 79.0000016689 276.199997902 408.000003099 -3.70000088215 781.600002766 -3.70000088215 c 0
781.600002766 100.599998236 m 0
 452.000003099 100.599998236 198.90000093 354.699997067 198.90000093 689.900000453 c 0
 198.90000093 1023.30000389 451.100003123 1279.20000267 780.700002789 1279.20000267 c 0
 1113.90000236 1279.20000267 1365.60000467 1023.20000386 1365.60000467 689.000000477 c 0
 1365.60000467 354.799997091 1113.90000236 100.599998236 781.600002766 100.599998236 c 0
641.600001335 757.20000124 m 1
 641.600001335 1000.30000293 l 1
 753.300004125 1000.30000293 l 2
 893.100004792 1000.30000293 954.700004697 994.300002456 954.700004697 883.400002003 c 0
 954.700004697 776.900002122 891.200005531 757.20000124 765.300005078 757.20000124 c 2
 641.600001335 757.20000124 l 1
498.300002694 254.800000906 m 1
 642.400001287 254.800000906 l 1
 642.400001287 630.500002503 l 1
 775.900004268 630.500002503 l 1
 802.900003552 603.500003219 977.700004458 254.800000906 977.700004458 254.800000906 c 1
 1139.70000279 254.800000906 l 1
 1139.70000279 254.800000906 965.100001693 585.800004005 916.50000298 650.600002289 c 1
 1049.40000272 681.700001597 1099.10000312 758.200001955 1099.10000312 885.700002074 c 0
 1099.10000312 1058.3000015 978.100004792 1126.10000169 788.200003386 1126.10000169 c 2
 498.300002694 1126.10000169 l 1
 498.300002694 254.800000906 l 1
EndSplineSet
EndChar

StartChar: s
Encoding: 115 115 93
Width: 937
VWidth: 0
Flags: HW
HStem: -18 86 918 86
VStem: 133 100 690 97
LayerCount: 2
UndoRedoHistory
Layer: 1
Undoes
EndUndoes
Redoes
EndRedoes
EndUndoRedoHistory
Fore
SplineSet
477.899999261 -17.1000000238 m 0
 712.999998569 -17.1000000238 849.099998355 96.1927693307 849.099998355 299.799998522 c 0
 849.099998355 458.299998164 752.299999595 529.399998426 577.699998021 604.999998331 c 2
 517.799996853 630.699998498 l 1
 391.098896686 686.225098146 345.49999702 703.79999876 345.49999702 766.899999738 c 0
 345.49999702 829.100000501 402.599997759 860.400001526 496.199999571 860.400001526 c 0
 586.799999952 860.400001526 687.399998903 825.80000186 759.899998546 789.900002122 c 1
 815.099997878 953.200000048 l 1
 714.299998403 1003.49999964 608.499999404 1037.29999912 486.899999499 1037.29999912 c 0
 263.499999642 1037.29999912 131.200000048 934.699998736 131.200000048 747.499999881 c 0
 132.100000024 591.19950124 205.899999261 528.300000548 375.899999738 451.500001073 c 1
 432.90000093 425.000000954 l 2
 559.9069026 365.223301007 621.600001812 340.900000215 621.600001812 271.999999285 c 1
 619.80000186 196.599998236 581.300001025 159.799997568 478.599999428 157.09999764 c 0
 374.599998474 154.399997711 240.399999857 214.099996924 167.800000429 260.899996161 c 1
 124.300000787 92.699998498 l 1
 146.20000124 76.3999984264 289.000000715 -17.1000000238 477.899999261 -17.1000000238 c 0
EndSplineSet
EndChar

StartChar: section
Encoding: 167 167 94
Width: 927
VWidth: 0
Flags: HW
LayerCount: 2
UndoRedoHistory
Layer: 1
Undoes
EndUndoes
Redoes
EndRedoes
EndUndoRedoHistory
Fore
SplineSet
581 511 m 1
 641 543 703 575 703 708 c 0
 703 801.584 613.451 839.986 486 889.717 c 1
 362 936.757 l 1
 300.605 915.492 234 842.784 234 745 c 0
 234 638 321.343 614.863 471 555 c 2
 581 511 l 1
792 253 m 0
 792 63.5868 621.625 -17.31 432.689 -17.31 c 0
 333.975 -17.31 230.195 4.77307 143 45 c 1
 174 126 l 1
 248.49 87.4407 346.847 63.3408 438.148 63.3408 c 0
 575.568 63.3408 697 117.937 697 260 c 0
 697 364 629.289 405.595 444 470 c 0
 255.713 535.447 137 590 137 740 c 0
 137 848 202 921 291 967 c 1
 195 1021 147 1083 147 1191 c 0
 147 1366.76 313.479 1444.03 496.857 1444.03 c 0
 587.459 1444.03 682.187 1425.16 763 1390 c 1
 734 1313 l 1
 669.382 1344.03 581.846 1362.57 498.749 1362.57 c 0
 366.777 1362.57 246 1315.8 246 1198 c 0
 246 1064 346.22 1035.56 521 966 c 0
 717 888 800 845 800 697 c 0
 800 589 761 518 656 474 c 1
 741 426 792 355 792 253 c 0
EndSplineSet
EndChar

StartChar: semicolon
Encoding: 59 59 95
Width: 617
VWidth: 0
Flags: HW
LayerCount: 2
UndoRedoHistory
Layer: 1
Undoes
EndUndoes
Redoes
EndRedoes
EndUndoRedoHistory
Fore
SplineSet
203.09999907 774.600001812 m 1
 446.099996209 774.600001812 l 1
 446.099996209 1022.20000005 l 1
 203.09999907 1022.20000005 l 1
 203.09999907 774.600001812 l 1
184.099998355 -286.199999809 m 1
 332.399996042 -286.199999809 l 1
 448.099995971 236.599997282 l 1
 234.299998403 236.599997282 l 1
 184.099998355 -286.199999809 l 1
EndSplineSet
EndChar

StartChar: seven
Encoding: 55 55 96
Width: 1063
VWidth: 0
Flags: HW
LayerCount: 2
UndoRedoHistory
Layer: 1
Undoes
EndUndoes
Redoes
EndRedoes
EndUndoRedoHistory
Fore
SplineSet
252.20000267 0.100000023842 m 1
 516.299998403 0.100000023842 l 1
 950.400000334 1181.80000234 l 1
 950.400000334 1337.80000043 l 1
 119.600001812 1337.80000043 l 1
 111.400002718 1145.40000319 l 1
 679.600004673 1145.40000319 l 1
 252.20000267 0.100000023842 l 1
EndSplineSet
EndChar

StartChar: six
Encoding: 54 54 97
Width: 1249
VWidth: 0
Flags: HW
LayerCount: 2
UndoRedoHistory
Layer: 1
Undoes
EndUndoes
Redoes
EndRedoes
EndUndoRedoHistory
Fore
SplineSet
614.199999094 169.199997425 m 0
 460.09999764 169.199997425 380.49999702 267.299998879 380.49999702 408.899999499 c 0
 380.49999702 561.500002265 458.700000644 655.20000124 617.699999213 655.20000124 c 0
 782 655.20000124 858.400001049 558.500000358 858.400001049 411.399999619 c 0
 858.400001049 269.499998927 771.700000405 169.199997425 614.199999094 169.199997425 c 0
623.399998903 -18 m 0
 900.199998617 -18 1106.39999723 155.900000453 1106.39999723 414.999999523 c 0
 1106.39999723 664.099999309 913.299997211 833.599998951 662.699998498 833.599998951 c 0
 631.719325908 833.599998951 601.898578083 827.575316361 574.712326743 818.874935675 c 1
 613.134328049 870.087459527 651.226660218 921.056576284 656.699994922 929.099998593 c 2
 962.899995446 1337.80000043 l 1
 674.299999833 1337.80000043 l 1
 320.700001597 860.80000186 l 2
 219.100000739 723.200000286 135.300000787 599.200000286 135.300000787 419.799999475 c 0
 135.300000787 159.800000906 335.09999907 -18 623.399998903 -18 c 0
EndSplineSet
EndChar

StartChar: slash
Encoding: 47 47 98
Width: 886
VWidth: 0
Flags: HW
LayerCount: 2
UndoRedoHistory
Layer: 1
Undoes
EndUndoes
Redoes
EndRedoes
EndUndoRedoHistory
Fore
SplineSet
60.400001049 -172.100001216 m 1
 257.299997687 -172.100001216 l 1
 824.000000238 1358.99999881 l 1
 624.200003624 1358.99999881 l 1
 60.400001049 -172.100001216 l 1
EndSplineSet
EndChar

StartChar: sterling
Encoding: 163 163 100
Width: 1017
VWidth: 0
Flags: HW
LayerCount: 2
UndoRedoHistory
Layer: 1
Undoes
EndUndoes
Redoes
EndRedoes
EndUndoRedoHistory
Fore
SplineSet
77.5000015497 15.7999992371 m 1
 68.300001502 194.399996758 l 1
 226.400002003 214.599996567 l 1
 226.400002003 607.500000596 l 1
 60.5000017881 607.500000596 l 1
 60.5000017881 777.899998307 l 1
 226.400002003 777.899998307 l 1
 226.400002003 863.699998736 l 2
 226.400002003 1146.79999852 329 1362.20000029 628.400001287 1362.20000029 c 0
 767.700001121 1362.20000029 883.000000715 1312.20000029 972.400000334 1236.5000006 c 1
 874.200001717 1080.80000281 l 1
 796.700001597 1135.10000312 725.100001216 1168.30000317 636.90000093 1168.30000317 c 0
 501.899998784 1168.30000317 450.899998546 1079.80000114 450.899998546 928.999998808 c 2
 450.899998546 777.899998307 l 1
 799.099999785 777.899998307 l 1
 799.099999785 608.300000548 l 1
 450.899998546 608.300000548 l 1
 450.899998546 215.699996591 l 1
 989.700000167 215.699996591 l 1
 982.799999952 15.7999992371 l 1
 77.5000015497 15.7999992371 l 1
EndSplineSet
EndChar

StartChar: t
Encoding: 116 116 101
Width: 824
VWidth: 0
Flags: HW
HStem: -10 78
VStem: 228 114 267 75
LayerCount: 2
UndoRedoHistory
Layer: 1
Undoes
EndUndoes
Redoes
EndRedoes
EndUndoRedoHistory
Fore
SplineSet
562.499997973 -12.6999999285 m 0
 665.799997807 -12.6999999285 758.999996901 15.7999997139 766.19999671 18.4999996424 c 1
 766.19999671 179.699997306 l 1
 761.699996829 176.999997377 671.79999733 161.59999752 612.099997163 161.59999752 c 0
 513.199997187 161.59999752 450.899997115 210.399997234 450.899997115 373.899997115 c 2
 450.899997115 858.700001597 l 1
 728.699997783 858.700001597 l 1
 728.699997783 1012.99999928 l 1
 450.899997115 1012.99999928 l 1
 450.899997115 1265.19999933 l 1
 279.599999666 1264.69999921 l 1
 221.941549563 1012.00779391 l 1
 63.0000007153 1001.29999936 l 1
 50.400001049 859.600001574 l 1
 209.100000501 859.600001574 l 1
 209.100000501 378.899996877 l 2
 210.000000477 120.199998617 307.200000763 -12.6999999285 562.499997973 -12.6999999285 c 0
EndSplineSet
EndChar

StartChar: three
Encoding: 51 51 102
Width: 1181
VWidth: 0
Flags: HW
LayerCount: 2
UndoRedoHistory
Layer: 1
Undoes
EndUndoes
Redoes
EndRedoes
EndUndoRedoHistory
Fore
SplineSet
539.999999285 -18 m 0
 799.500000119 -18 1008.89999902 117.30000031 1008.89999902 366.899999976 c 0
 1008.89999902 527.900001407 922.499997735 666.500000834 772.899996877 709.200000525 c 1
 902.599997997 760.300000072 972.999999046 856.099999785 972.999999046 999.400001287 c 0
 972.999999046 1214.50000131 790.999998569 1358.50000036 546.199999094 1358.50000036 c 0
 384.799999952 1358.50000036 264.099999547 1322.40000033 161.099999309 1258.80000019 c 1
 231.599998474 1082.50000274 l 1
 307.799998999 1131.80000305 411.899999499 1165.90000308 525.899999499 1165.90000308 c 0
 666.200000286 1165.90000308 741.200002432 1079.60000348 741.200002432 981.100001454 c 0
 741.200002432 824.599999428 602.600000143 798.199999571 414.899999976 796.499999404 c 1
 357.500000596 796.499999404 l 1
 357.500000596 607.100001931 l 1
 414.699999928 607.100001931 l 1
 629.000000715 602.100001931 766.300002694 564.900001645 766.300002694 377.299999595 c 0
 766.300002694 256.299997449 679.500001311 175.499997258 540.999999285 175.499997258 c 0
 421.499998927 175.499997258 296.199998617 217.099997878 234.799998999 266.999997377 c 1
 161.399999857 93.3999998569 l 1
 236.999998331 29.1000012159 385.699998736 -18 539.999999285 -18 c 0
EndSplineSet
EndChar

StartChar: two
Encoding: 50 50 103
Width: 1138
VWidth: 0
Flags: HW
LayerCount: 2
UndoRedoHistory
Layer: 1
Undoes
EndUndoes
Redoes
EndRedoes
EndUndoRedoHistory
Fore
SplineSet
164.299999356 0 m 1
 952.199999809 0 l 1
 967.999999523 188.79999733 l 1
 439.439277355 188.79999733 l 1
 726.199999332 494.800001621 l 2
 895.599999666 676.400001526 973.999999046 814.999999762 973.999999046 978.700000882 c 0
 973.999999046 1230.60000181 774.299996734 1358.50000036 538.099999309 1358.50000036 c 0
 376.599999666 1358.50000036 242.999999285 1295.70000064 165.699999213 1230.30000103 c 1
 236.69999826 1054.80000353 l 1
 280.099999785 1086.80000424 403.899999738 1165.0000031 526.399999619 1165.0000031 c 0
 637.399999857 1165.0000031 730.100002646 1087.60000396 730.100002646 967.100000739 c 0
 730.100002646 872.299998403 667.800002337 762.499999642 582.500001073 668.399998665 c 2
 155.79999876 197.399997711 l 1
 164.299999356 0 l 1
EndSplineSet
EndChar

StartChar: underscore
Encoding: 95 95 105
Width: 1011
VWidth: 0
Flags: HW
LayerCount: 2
UndoRedoHistory
Layer: 1
Undoes
EndUndoes
Redoes
EndRedoes
EndUndoRedoHistory
Fore
SplineSet
53.3000010252 -185.500002503 m 1
 956.999998569 -185.500002503 l 1
 956.999998569 -19.3000046015 l 1
 53.3000010252 -19.3000046015 l 1
 53.3000010252 -185.500002503 l 1
EndSplineSet
EndChar

StartChar: uni00AD
Encoding: 173 173 108
Width: 688
VWidth: 0
Flags: HW
LayerCount: 2
UndoRedoHistory
Layer: 1
Undoes
EndUndoes
Redoes
EndRedoes
EndUndoRedoHistory
Fore
SplineSet
67.5000015497 326.799994707 m 1
 635.900006652 326.799994707 l 1
 635.900006652 517.799992085 l 1
 67.5000015497 517.799992085 l 1
 67.5000015497 326.799994707 l 1
EndSplineSet
EndChar

StartChar: uni00B2
Encoding: 178 178 109
Width: 683
VWidth: 0
Flags: HW
LayerCount: 2
UndoRedoHistory
Layer: 1
Undoes
EndUndoes
Redoes
EndRedoes
EndUndoRedoHistory
Fore
SplineSet
581 607 m 1
 100 607 l 1
 100 691 l 1
 324 916 487 1058 487 1172 c 0
 487 1271 423 1314 351 1314 c 0
 274 1314 200 1280 140 1200 c 1
 74 1255 l 1
 122 1345 234 1406 340 1406 c 0
 485 1406 592 1329 592 1180 c 0
 592 1003 432 878 234 697 c 1
 581 697 l 1
 581 607 l 1
EndSplineSet
EndChar

StartChar: v
Encoding: 118 118 111
Width: 1062
VWidth: 0
Flags: HW
LayerCount: 2
UndoRedoHistory
Layer: 1
Undoes
EndUndoes
Redoes
EndRedoes
EndUndoRedoHistory
Fore
SplineSet
424.700000405 0 m 1
 658.199997425 0 l 1
 1033.29999745 1012.99999928 l 1
 780.800001144 1012.99999928 l 1
 601.30000031 464.799998522 l 1
 543.879772813 261.557716935 l 1
 477.09999764 465.399998426 l 1
 284.799997091 1012.99999928 l 1
 29.6000008583 1012.99999928 l 1
 424.700000405 0 l 1
EndSplineSet
EndChar

StartChar: w
Encoding: 119 119 112
Width: 1542
VWidth: 0
Flags: HW
LayerCount: 2
UndoRedoHistory
Layer: 1
Undoes
EndUndoes
Redoes
EndRedoes
EndUndoRedoHistory
Fore
SplineSet
319.200000525 0 m 1
 549.79999733 0 l 1
 771.167294484 763.548851013 l 1
 983.800001383 0 l 1
 1214.49999774 0 l 1
 1512.59999657 1012.99999928 l 1
 1281.20000005 1012.99999928 l 1
 1094.0874553 287.699641035 l 1
 895.399997234 1012.99999928 l 1
 653.800000191 1012.99999928 l 1
 447.093662896 280.600610167 l 1
 264.499997497 1012.99999928 l 1
 30.0000009537 1012.99999928 l 1
 319.200000525 0 l 1
EndSplineSet
EndChar

StartChar: x
Encoding: 120 120 113
Width: 1078
VWidth: 0
Flags: HW
HStem: 0 21<35 305 305 305 767.9 1042.2 1042.2 1042.2> 966 20
LayerCount: 2
UndoRedoHistory
Layer: 1
Undoes
EndUndoes
Redoes
EndRedoes
EndUndoRedoHistory
Fore
SplineSet
767.90000093 0 m 1
 1042.19999695 0 l 1
 682.107414476 507.33488966 l 1
 1029.69999731 1012.99999928 l 1
 759.700001121 1012.99999928 l 1
 547.258924949 697.323095151 l 1
 323.19999671 1012.99999928 l 1
 51.4000005722 1012.99999928 l 1
 394.975084121 527.247648667 l 1
 35.0000002384 0 l 1
 304.999996424 0 l 1
 530.152785419 336.131094237 l 1
 767.90000093 0 l 1
EndSplineSet
EndChar

StartChar: y
Encoding: 121 121 114
Width: 1050
VWidth: 0
Flags: HW
LayerCount: 2
UndoRedoHistory
Layer: 1
Undoes
EndUndoes
Redoes
EndRedoes
EndUndoRedoHistory
Fore
SplineSet
511.399997711 -375.799999952 m 1
 1022.49999821 1012.99999928 l 1
 772.400002003 1012.99999928 l 1
 550.730773056 302.78704453 l 1
 297.199997187 1012.99999928 l 1
 47.2000007629 1012.99999928 l 1
 435.040856379 26.4642279622 l 1
 290.600001097 -346.500000358 l 1
 511.399997711 -375.799999952 l 1
EndSplineSet
EndChar

StartChar: yen
Encoding: 165 165 115
Width: 1070
VWidth: 0
Flags: HW
LayerCount: 2
UndoRedoHistory
Layer: 1
Undoes
EndUndoes
Redoes
EndRedoes
EndUndoRedoHistory
Fore
SplineSet
425.100002885 0 m 1
 664.199999571 0 l 1
 664.199999571 260.500000834 l 1
 971.699999213 260.500000834 l 1
 971.699999213 415.899998546 l 1
 664.199999571 415.899998546 l 1
 664.199999571 531.000000954 l 1
 971.499999166 531.000000954 l 1
 971.499999166 678.699998975 l 1
 732.84029877 678.699998975 l 1
 1115.49999917 1337.80000043 l 1
 860.100003123 1337.80000043 l 1
 542.350101276 769.942796649 l 1
 220.099998593 1337.80000043 l 1
 -39.6999973059 1337.80000043 l 1
 352.389903669 678.699998975 l 1
 120.000002861 678.699998975 l 1
 120.000002861 531.000000954 l 1
 425.100002885 531.000000954 l 1
 425.100002885 415.899998546 l 1
 119.800002813 415.899998546 l 1
 119.800002813 260.500000834 l 1
 425.100002885 260.500000834 l 1
 425.100002885 0 l 1
EndSplineSet
EndChar

StartChar: z
Encoding: 122 122 116
Width: 952
VWidth: 0
Flags: HW
LayerCount: 2
UndoRedoHistory
Layer: 1
Undoes
EndUndoes
Redoes
EndRedoes
EndUndoRedoHistory
Fore
SplineSet
105.000000238 0 m 1
 861.799997091 0 l 1
 861.799997091 180.599997282 l 1
 395.094609069 180.599997282 l 1
 846.899997354 846.800001621 l 1
 846.899997354 1012.99999928 l 1
 126.800000191 1012.99999928 l 1
 126.800000191 839.600001812 l 1
 578.359541016 839.600001812 l 1
 105.000000238 149.899998069 l 1
 105.000000238 0 l 1
EndSplineSet
EndChar

StartChar: zero
Encoding: 48 48 117
Width: 1244
VWidth: 0
Flags: HW
LayerCount: 2
UndoRedoHistory
Layer: 1
Undoes
EndUndoes
Redoes
EndRedoes
EndUndoRedoHistory
Fore
SplineSet
622.399998903 -19.3000003099 m 0
 984.79999733 -19.3000003099 1112.4999975 306.69999826 1112.4999975 667.300000072 c 0
 1112.4999975 1035.30000246 979.999996901 1358.10000026 622.399998903 1358.10000026 c 0
 266.500000834 1358.10000026 132 1037.80000234 132 667.300000072 c 0
 132 306.69999826 260.900000453 -19.3000003099 622.399998903 -19.3000003099 c 0
622.399998903 174.599997044 m 0
 436.699998736 174.599997044 377.099996448 406.599995136 377.099996448 676.599999905 c 1
 378.699996352 939.600004196 438.399998665 1165.00000286 622.399998903 1165.00000286 c 0
 808.09999907 1165.00000286 865.700001121 941.700005174 865.700001121 674.100000024 c 0
 865.700001121 404.899995208 808.09999907 174.599997044 622.399998903 174.599997044 c 0
EndSplineSet
EndChar
